<?xml version="1.0" standalone="no"?><!DOCTYPE svg PUBLIC "-//W3C//DTD SVG 1.1//EN" "http://www.w3.org/Graphics/SVG/1.1/DTD/svg11.dtd"><svg height="1024" node-id="1" sillyvg="true" template-height="1024" template-width="1024" version="1.1" viewBox="0 0 1024 1024" width="1024" xmlns="http://www.w3.org/2000/svg" xmlns:xlink="http://www.w3.org/1999/xlink"><defs node-id="80"><linearGradient gradientUnits="objectBoundingBox" id="linearGradient-1" node-id="5" spreadMethod="pad" x1="0.5" x2="0.5" y1="0" y2="1"><stop offset="0" stop-color="#f9fafc"></stop><stop offset="1" stop-color="#f0f2f5"></stop></linearGradient><linearGradient gradientUnits="objectBoundingBox" id="linearGradient-4" node-id="9" spreadMethod="pad" x1="0.680262" x2="0.680262" y1="-0.7560432" y2="0.89236754"><stop offset="0" stop-color="#fbfcfe"></stop><stop offset="1" stop-color="#ced6e5"></stop></linearGradient><linearGradient gradientUnits="objectBoundingBox" id="linearGradient-5" node-id="12" spreadMethod="pad" x1="0.079356186" x2="0.079356186" y1="0.22613585" y2="1"><stop offset="0" stop-color="#fcfdff"></stop><stop offset="1" stop-color="#f5f8ff"></stop></linearGradient><linearGradient gradientUnits="objectBoundingBox" id="linearGradient-6" node-id="15" spreadMethod="pad" x1="0.079356186" x2="0.079356186" y1="0.22613585" y2="1"><stop offset="0" stop-color="#fcfdff"></stop><stop offset="1" stop-color="#f5f8ff"></stop></linearGradient><linearGradient gradientUnits="objectBoundingBox" id="linearGradient-7" node-id="18" spreadMethod="pad" x1="0.079356186" x2="0.079356186" y1="0.22613585" y2="1"><stop offset="0" stop-color="#fcfdff"></stop><stop offset="1" stop-color="#f5f8ff"></stop></linearGradient><linearGradient gradientUnits="objectBoundingBox" id="linearGradient-8" node-id="21" spreadMethod="pad" x1="0" x2="1" y1="0.5" y2="0.5"><stop offset="0" stop-color="#e9edf3"></stop><stop offset="1" stop-color="#cbd3e1"></stop></linearGradient><linearGradient gradientUnits="objectBoundingBox" id="linearGradient-9" node-id="24" spreadMethod="pad" x1="0" x2="1" y1="0.5" y2="0.5"><stop offset="0" stop-color="#e9edf3"></stop><stop offset="1" stop-color="#cbd3e1"></stop></linearGradient><linearGradient gradientUnits="objectBoundingBox" id="linearGradient-10" node-id="27" spreadMethod="pad" x1="0.079356186" x2="0.079356186" y1="0.22613585" y2="1"><stop offset="0" stop-color="#fcfdff"></stop><stop offset="1" stop-color="#f5f8ff"></stop></linearGradient><linearGradient gradientUnits="objectBoundingBox" id="linearGradient-13" node-id="35" spreadMethod="pad" x1="0" x2="1" y1="0.5" y2="0.5"><stop offset="0" stop-color="#8f9bb3"></stop><stop offset="1" stop-color="#596680"></stop></linearGradient><linearGradient gradientUnits="objectBoundingBox" id="linearGradient-14" node-id="38" spreadMethod="pad" x1="0.517499" x2="0.4676562" y1="0.39319256" y2="0.6608786"><stop offset="0" stop-color="#e9edf3"></stop><stop offset="1" stop-color="#cbd3e1"></stop></linearGradient><linearGradient gradientUnits="objectBoundingBox" id="linearGradient-15" node-id="41" spreadMethod="pad" x1="0.47931987" x2="0.5165327" y1="0.11219009" y2="0.88543844"><stop offset="0" stop-color="#ff5d90"></stop><stop offset="1" stop-color="#ff3959"></stop></linearGradient><linearGradient gradientUnits="objectBoundingBox" id="linearGradient-16" node-id="44" spreadMethod="pad" x1="0.054449525" x2="0.77649647" y1="0.375" y2="0.5949335"><stop offset="0" stop-color="#2f74ff"></stop><stop offset="1" stop-color="#0f5eff"></stop></linearGradient><filter height="2.077" id="filter-12" node-id="31" width="1.683" x="-0.341" y="-0.385"><feOffset color-interpolation-filters="linearRGB" dx="0" dy="57" in="SourceAlpha" result="shadowOffsetOuter1"></feOffset><feGaussianBlur color-interpolation-filters="linearRGB" in="shadowOffsetOuter1" result="shadowBlurOuter1" stdDeviation="71.5 71.5"></feGaussianBlur><feColorMatrix color-interpolation-filters="linearRGB" in="shadowBlurOuter1" result="result3" type="matrix" values="0 0 0 0 0.56 0 0 0 0 0.606666667 0 0 0 0 0.7 0 0 0 0.36166958 0"></feColorMatrix></filter><clipPath id="mask-3" node-id="54"><path d="M 912.00 512.00 L 911.68 527.95 L 910.74 543.75 L 909.18 559.42 L 907.02 574.97 L 904.24 590.40 L 900.86 605.74 L 896.90 620.87 L 892.36 635.79 L 887.25 650.52 L 881.55 665.07 L 875.29 679.39 L 868.49 693.42 L 861.15 707.18 L 853.25 720.68 L 844.80 733.92 L 835.84 746.80 L 826.38 759.32 L 816.40 771.50 L 805.89 783.33 L 794.84 794.84 L 783.33 805.89 L 771.50 816.40 L 759.32 826.38 L 746.80 835.84 L 733.92 844.80 L 720.68 853.25 L 707.18 861.15 L 693.42 868.49 L 679.39 875.29 L 665.07 881.55 L 650.52 887.25 L 635.79 892.36 L 620.87 896.90 L 605.74 900.86 L 590.40 904.24 L 574.97 907.02 L 559.42 909.18 L 543.75 910.74 L 527.95 911.68 L 512.00 912.00 L 496.05 911.68 L 480.25 910.74 L 464.58 909.18 L 449.03 907.02 L 433.60 904.24 L 418.26 900.86 L 403.13 896.90 L 388.21 892.36 L 373.48 887.25 L 358.93 881.55 L 344.61 875.29 L 330.58 868.49 L 316.82 861.15 L 303.32 853.25 L 290.08 844.80 L 277.20 835.84 L 264.68 826.38 L 252.50 816.40 L 240.67 805.89 L 229.16 794.84 L 218.11 783.33 L 207.60 771.50 L 197.62 759.32 L 188.16 746.80 L 179.20 733.92 L 170.75 720.68 L 162.85 707.18 L 155.51 693.42 L 148.71 679.39 L 142.45 665.07 L 136.75 650.52 L 131.64 635.79 L 127.10 620.87 L 123.14 605.74 L 119.76 590.40 L 116.98 574.97 L 114.82 559.42 L 113.26 543.75 L 112.32 527.95 L 112.00 512.00 L 112.32 496.05 L 113.26 480.25 L 114.82 464.58 L 116.98 449.03 L 119.76 433.60 L 123.14 418.26 L 127.10 403.13 L 131.64 388.21 L 136.75 373.48 L 142.45 358.93 L 148.71 344.61 L 155.51 330.58 L 162.85 316.82 L 170.75 303.32 L 179.20 290.08 L 188.16 277.20 L 197.62 264.68 L 207.60 252.50 L 218.11 240.67 L 229.16 229.16 L 240.67 218.11 L 252.50 207.60 L 264.68 197.62 L 277.20 188.16 L 290.08 179.20 L 303.32 170.75 L 316.82 162.85 L 330.58 155.51 L 344.61 148.71 L 358.93 142.45 L 373.48 136.75 L 388.21 131.64 L 403.13 127.10 L 418.26 123.14 L 433.60 119.76 L 449.03 116.98 L 464.58 114.82 L 480.25 113.26 L 496.05 112.32 L 512.00 112.00 L 527.95 112.32 L 543.75 113.26 L 559.42 114.82 L 574.97 116.98 L 590.40 119.76 L 605.74 123.14 L 620.87 127.10 L 635.79 131.64 L 650.52 136.75 L 665.07 142.45 L 679.39 148.71 L 693.42 155.51 L 707.18 162.85 L 720.68 170.75 L 733.92 179.20 L 746.80 188.16 L 759.32 197.62 L 771.50 207.60 L 783.33 218.11 L 794.84 229.16 L 805.89 240.67 L 816.40 252.50 L 826.38 264.68 L 835.84 277.20 L 844.80 290.08 L 853.25 303.32 L 861.15 316.82 L 868.49 330.58 L 875.29 344.61 L 881.55 358.93 L 887.25 373.48 L 892.36 388.21 L 896.90 403.13 L 900.86 418.26 L 904.24 433.60 L 907.02 449.03 L 909.18 464.58 L 910.74 480.25 L 911.68 496.05 L 912.00 512.00 Z" fill="#000000" fill-rule="evenodd" node-id="165" stroke="none" target-height="800" target-width="800" target-x="112" target-y="112"></path></clipPath></defs><g node-id="226"><path d="M 12.00 12.00 L 1012.00 12.00 L 1012.00 1012.00 L 12.00 1012.00 Z" fill="none" group-id="1" id="矩形" node-id="49" stroke="none" target-height="1000" target-width="1000" target-x="12" target-y="12"></path><g node-id="227"><path d="M 512.00 940.57 L 526.87 940.31 L 541.54 939.56 L 556.02 938.34 L 570.31 936.65 L 584.42 934.49 L 598.37 931.86 L 612.33 928.75 L 626.05 925.22 L 639.55 921.27 L 652.84 916.90 L 665.93 912.11 L 678.82 906.89 L 691.58 901.24 L 704.08 895.21 L 716.33 888.82 L 728.33 882.05 L 740.09 874.90 L 751.62 867.38 L 765.14 857.86 L 778.23 847.87 L 790.91 837.41 L 803.18 826.47 L 815.05 815.05 L 826.47 803.18 L 837.41 790.91 L 847.87 778.23 L 857.86 765.14 L 867.38 751.62 L 874.90 740.09 L 882.05 728.33 L 888.82 716.33 L 895.21 704.09 L 901.24 691.58 L 906.89 678.82 L 912.11 665.93 L 916.90 652.84 L 921.27 639.55 L 925.22 626.05 L 928.75 612.33 L 931.86 598.37 L 934.49 584.42 L 936.65 570.31 L 938.34 556.02 L 939.56 541.54 L 940.31 526.87 L 940.57 512.00 L 940.31 497.13 L 939.56 482.46 L 938.34 467.98 L 936.65 453.69 L 934.49 439.58 L 931.86 425.63 L 928.75 411.67 L 925.22 397.95 L 921.27 384.45 L 916.90 371.16 L 912.11 358.07 L 906.89 345.18 L 901.24 332.42 L 895.21 319.92 L 888.82 307.67 L 882.05 295.67 L 874.90 283.91 L 867.38 272.38 L 857.85 258.86 L 847.87 245.77 L 837.41 233.09 L 826.47 220.82 L 815.05 208.95 L 803.18 197.53 L 790.91 186.59 L 778.23 176.13 L 765.14 166.15 L 751.62 156.62 L 740.09 149.10 L 728.33 141.95 L 716.33 135.18 L 704.08 128.79 L 691.58 122.76 L 678.82 117.11 L 665.93 111.89 L 652.84 107.10 L 639.55 102.73 L 626.05 98.78 L 612.33 95.25 L 598.37 92.14 L 584.42 89.51 L 570.31 87.35 L 556.02 85.66 L 541.54 84.44 L 526.87 83.69 L 512.00 83.43 L 497.13 83.69 L 482.46 84.44 L 467.98 85.66 L 453.69 87.35 L 439.58 89.51 L 425.63 92.14 L 411.67 95.25 L 397.95 98.78 L 384.45 102.73 L 371.16 107.10 L 358.07 111.89 L 345.18 117.11 L 332.42 122.76 L 319.92 128.79 L 307.67 135.18 L 295.67 141.95 L 283.91 149.10 L 272.38 156.62 L 258.86 166.15 L 245.77 176.13 L 233.09 186.59 L 220.82 197.53 L 208.95 208.95 L 197.53 220.82 L 186.59 233.09 L 176.13 245.77 L 166.15 258.86 L 156.62 272.38 L 149.10 283.91 L 141.95 295.67 L 135.18 307.67 L 128.79 319.92 L 122.76 332.42 L 117.11 345.18 L 111.89 358.07 L 107.10 371.16 L 102.73 384.45 L 98.78 397.95 L 95.25 411.67 L 92.14 425.63 L 89.51 439.58 L 87.35 453.69 L 85.66 467.98 L 84.44 482.46 L 83.69 497.13 L 83.43 512.00 L 83.69 526.87 L 84.44 541.54 L 85.66 556.02 L 87.35 570.31 L 89.51 584.42 L 92.14 598.37 L 95.25 612.33 L 98.78 626.05 L 102.73 639.55 L 107.10 652.84 L 111.89 665.93 L 117.11 678.82 L 122.76 691.58 L 128.79 704.08 L 135.18 716.33 L 141.95 728.33 L 149.10 740.09 L 156.62 751.62 L 166.15 765.14 L 176.13 778.23 L 186.59 790.91 L 197.53 803.18 L 208.95 815.05 L 220.82 826.47 L 233.09 837.41 L 245.77 847.87 L 258.86 857.86 L 272.38 867.38 L 283.91 874.90 L 295.67 882.05 L 307.67 888.82 L 319.92 895.21 L 332.42 901.24 L 345.18 906.89 L 358.07 912.11 L 371.16 916.90 L 384.45 921.27 L 397.95 925.22 L 411.67 928.75 L 425.63 931.86 L 439.58 934.49 L 453.69 936.65 L 467.98 938.34 L 482.46 939.56 L 497.13 940.31 L 512.00 940.57 Z" fill="#ffffff" fill-rule="evenodd" group-id="1,2" id="椭圆形" node-id="51" stroke="none" target-height="857.1429" target-width="857.1429" target-x="83.4286" target-y="83.4286"></path><path d="M 526.15 936.77 L 527.56 937.01 L 528.71 937.73 L 529.51 938.83 L 529.84 940.22 L 529.60 941.63 L 528.87 942.78 L 527.78 943.58 L 526.38 943.91 L 512.00 944.14 L 510.60 943.86 L 509.47 943.10 L 508.71 941.97 L 508.43 940.57 L 508.71 939.17 L 509.47 938.05 L 510.60 937.29 L 512.00 937.00 L 526.15 936.77 Z M 476.64 935.56 L 476.83 935.57 L 490.97 936.49 L 492.36 936.84 L 493.44 937.66 L 494.15 938.82 L 494.36 940.23 L 494.01 941.61 L 493.20 942.70 L 492.04 943.41 L 490.62 943.62 L 476.25 942.68 L 474.88 942.29 L 473.82 941.44 L 473.15 940.25 L 472.98 938.83 L 473.38 937.46 L 474.23 936.40 L 475.41 935.74 L 476.83 935.57 L 476.64 935.56 Z M 568.50 933.28 L 569.93 933.38 L 571.14 933.98 L 572.05 935.00 L 572.51 936.35 L 572.42 937.77 L 571.81 938.99 L 570.79 939.89 L 569.44 940.36 L 555.14 942.02 L 553.71 941.87 L 552.52 941.22 L 551.65 940.18 L 551.23 938.81 L 551.38 937.39 L 552.02 936.20 L 553.07 935.33 L 554.43 934.91 L 568.50 933.28 Z M 430.54 932.86 L 431.08 931.53 L 432.03 930.56 L 433.27 930.02 L 434.70 929.99 L 448.67 932.31 L 450.02 932.80 L 451.02 933.72 L 451.60 934.95 L 451.68 936.37 L 451.19 937.72 L 450.27 938.72 L 449.04 939.30 L 447.62 939.38 L 433.41 937.01 L 432.08 936.48 L 431.12 935.53 L 430.57 934.28 L 430.54 932.86 Z M 610.30 925.58 L 611.73 925.53 L 613.00 926.01 L 614.00 926.93 L 614.60 928.23 L 614.65 929.66 L 614.16 930.93 L 613.24 931.93 L 611.95 932.53 L 597.87 935.61 L 596.44 935.61 L 595.19 935.08 L 594.22 934.13 L 593.66 932.82 L 593.67 931.39 L 594.19 930.13 L 595.14 929.16 L 596.46 928.61 L 610.30 925.58 Z M 388.92 922.65 L 389.59 921.39 L 390.63 920.52 L 391.92 920.10 L 393.35 920.22 L 407.02 923.94 L 408.31 924.56 L 409.21 925.57 L 409.67 926.85 L 409.60 928.28 L 408.98 929.56 L 407.97 930.47 L 406.69 930.93 L 405.26 930.86 L 391.36 927.08 L 390.09 926.41 L 389.22 925.37 L 388.81 924.08 L 388.92 922.65 Z M 651.13 913.70 L 652.55 913.51 L 653.86 913.87 L 654.95 914.68 L 655.68 915.91 L 655.87 917.33 L 655.52 918.64 L 654.70 919.73 L 653.47 920.45 L 639.77 924.94 L 638.35 925.08 L 637.05 924.69 L 635.99 923.84 L 635.30 922.58 L 635.16 921.16 L 635.56 919.86 L 636.41 918.80 L 637.66 918.12 L 651.13 913.70 Z M 348.52 908.31 L 349.31 907.11 L 350.44 906.36 L 351.77 906.07 L 353.17 906.33 L 366.40 911.41 L 367.62 912.15 L 368.41 913.25 L 368.74 914.57 L 368.53 915.98 L 367.79 917.20 L 366.68 918.00 L 365.37 918.33 L 363.95 918.12 L 350.50 912.95 L 349.31 912.17 L 348.55 911.04 L 348.27 909.71 L 348.52 908.31 Z M 690.46 897.83 L 691.85 897.50 L 693.19 897.72 L 694.36 898.42 L 695.20 899.57 L 695.53 900.96 L 695.32 902.30 L 694.62 903.46 L 693.46 904.31 L 680.31 910.14 L 678.90 910.42 L 677.57 910.16 L 676.43 909.42 L 675.62 908.24 L 675.34 906.84 L 675.60 905.51 L 676.34 904.37 L 677.52 903.56 L 690.46 897.83 Z M 309.75 889.96 L 310.66 888.85 L 311.86 888.21 L 313.20 888.06 L 314.58 888.46 L 327.22 894.84 L 328.36 895.71 L 329.04 896.88 L 329.24 898.22 L 328.88 899.61 L 328.02 900.75 L 326.84 901.43 L 325.50 901.62 L 324.11 901.27 L 311.25 894.78 L 310.15 893.88 L 309.51 892.68 L 309.36 891.33 L 309.75 889.96 Z M 728.11 878.03 L 729.46 877.56 L 730.81 877.65 L 732.04 878.23 L 733.00 879.29 L 733.47 880.64 L 733.39 881.99 L 732.81 883.22 L 731.75 884.18 L 719.22 891.31 L 717.86 891.73 L 716.51 891.60 L 715.30 890.98 L 714.38 889.89 L 713.95 888.53 L 714.08 887.17 L 714.70 885.97 L 715.79 885.04 L 728.11 878.03 Z M 273.04 867.84 L 274.05 866.83 L 275.30 866.31 L 276.66 866.29 L 277.99 866.83 L 289.94 874.44 L 290.98 875.42 L 291.54 876.66 L 291.60 878.01 L 291.11 879.36 L 290.14 880.40 L 288.90 880.96 L 287.54 881.02 L 286.20 880.53 L 274.05 872.79 L 273.04 871.78 L 272.52 870.52 L 272.50 869.16 L 273.04 867.84 Z M 763.56 854.59 L 764.86 853.99 L 766.22 853.93 L 767.50 854.39 L 768.56 855.35 L 769.16 856.64 L 769.21 858.00 L 768.75 859.28 L 767.79 860.34 L 756.05 868.68 L 754.74 869.24 L 753.38 869.25 L 752.12 868.75 L 751.09 867.75 L 750.53 866.44 L 750.52 865.08 L 751.02 863.82 L 752.01 862.79 L 763.56 854.59 Z M 238.72 842.17 L 239.82 841.27 L 241.12 840.87 L 242.48 840.99 L 243.74 841.66 L 254.87 850.42 L 255.81 851.50 L 256.25 852.78 L 256.17 854.14 L 255.55 855.43 L 254.48 856.37 L 253.19 856.80 L 251.83 856.73 L 250.55 856.11 L 239.23 847.20 L 238.33 846.09 L 237.93 844.79 L 238.05 843.44 L 238.72 842.17 Z M 796.51 827.72 L 797.74 827.00 L 799.09 826.81 L 800.41 827.13 L 801.56 827.98 L 802.28 829.21 L 802.47 830.56 L 802.14 831.88 L 801.30 833.03 L 790.45 842.49 L 789.19 843.17 L 787.84 843.32 L 786.54 842.95 L 785.42 842.06 L 784.73 840.81 L 784.59 839.46 L 784.96 838.15 L 785.84 837.03 L 796.51 827.72 Z M 207.12 813.22 L 208.31 812.43 L 209.64 812.17 L 210.98 812.42 L 212.17 813.21 L 222.38 823.04 L 223.21 824.20 L 223.51 825.52 L 223.30 826.87 L 222.55 828.09 L 221.39 828.92 L 220.07 829.22 L 218.73 829.01 L 217.51 828.26 L 207.13 818.27 L 206.34 817.08 L 206.08 815.75 L 206.33 814.41 L 207.12 813.22 Z M 826.58 797.78 L 827.73 796.93 L 829.05 796.61 L 830.39 796.81 L 831.62 797.54 L 832.47 798.69 L 832.79 800.01 L 832.59 801.35 L 831.86 802.58 L 821.99 813.09 L 820.81 813.89 L 819.48 814.17 L 818.14 813.93 L 816.94 813.16 L 816.14 811.98 L 815.86 810.65 L 816.10 809.31 L 816.87 808.11 L 826.58 797.78 Z M 178.60 781.34 L 179.87 780.67 L 181.22 780.54 L 182.52 780.93 L 183.63 781.83 L 192.81 792.62 L 193.52 793.85 L 193.69 795.20 L 193.35 796.52 L 192.48 797.66 L 191.24 798.37 L 189.90 798.54 L 188.58 798.20 L 187.44 797.33 L 178.11 786.37 L 177.44 785.11 L 177.32 783.75 L 177.70 782.45 L 178.60 781.34 Z M 853.56 764.95 L 854.62 764.00 L 855.90 763.55 L 857.26 763.61 L 858.55 764.21 L 859.51 765.28 L 859.96 766.56 L 859.90 767.92 L 859.30 769.21 L 850.53 780.63 L 849.43 781.55 L 848.14 781.96 L 846.78 781.85 L 845.51 781.21 L 844.59 780.11 L 844.18 778.82 L 844.29 777.46 L 844.93 776.19 L 853.56 764.95 Z M 153.32 746.69 L 154.65 746.15 L 156.01 746.16 L 157.26 746.67 L 158.28 747.68 L 166.34 759.34 L 166.93 760.64 L 166.97 762.00 L 166.49 763.27 L 165.52 764.32 L 164.22 764.90 L 162.86 764.94 L 161.59 764.47 L 160.54 763.50 L 152.34 751.64 L 151.80 750.32 L 151.80 748.96 L 152.32 747.71 L 153.32 746.69 Z M 877.15 729.59 L 878.12 728.53 L 879.35 727.96 L 880.70 727.88 L 882.05 728.35 L 883.11 729.32 L 883.68 730.55 L 883.76 731.90 L 883.28 733.25 L 875.70 745.49 L 874.70 746.51 L 873.45 747.05 L 872.09 747.08 L 870.76 746.56 L 869.74 745.56 L 869.20 744.31 L 869.17 742.96 L 869.69 741.62 L 877.15 729.59 Z M 131.65 709.72 L 133.02 709.32 L 134.37 709.46 L 135.57 710.10 L 136.48 711.20 L 143.34 723.61 L 143.79 724.96 L 143.69 726.32 L 143.10 727.54 L 142.03 728.48 L 140.67 728.93 L 139.31 728.83 L 138.09 728.24 L 137.15 727.17 L 130.17 714.55 L 129.76 713.18 L 129.91 711.83 L 130.54 710.63 L 131.65 709.72 Z M 897.08 692.06 L 897.94 690.91 L 899.10 690.22 L 900.44 690.00 L 901.83 690.34 L 902.98 691.19 L 903.68 692.36 L 903.89 693.70 L 903.55 695.09 L 897.23 708.03 L 896.34 709.14 L 895.15 709.80 L 893.80 709.97 L 892.42 709.59 L 891.31 708.70 L 890.65 707.51 L 890.48 706.16 L 890.86 704.78 L 897.08 692.06 Z M 113.79 670.79 L 115.19 670.52 L 116.52 670.80 L 117.65 671.55 L 118.45 672.74 L 124.03 685.76 L 124.34 687.15 L 124.11 688.49 L 123.39 689.64 L 122.23 690.48 L 120.83 690.79 L 119.50 690.56 L 118.34 689.84 L 117.51 688.68 L 111.84 675.44 L 111.57 674.04 L 111.85 672.71 L 112.60 671.58 L 113.79 670.79 Z M 913.15 652.72 L 913.88 651.49 L 914.97 650.68 L 916.29 650.34 L 917.70 650.53 L 918.93 651.27 L 919.74 652.36 L 920.09 653.67 L 919.89 655.09 L 914.90 668.60 L 914.12 669.80 L 913.01 670.57 L 911.68 670.87 L 910.27 670.63 L 909.07 669.86 L 908.30 668.74 L 908.00 667.41 L 908.24 666.01 L 913.15 652.72 Z M 99.93 630.24 L 101.36 630.12 L 102.65 630.53 L 103.70 631.39 L 104.37 632.65 L 108.61 646.17 L 108.78 647.59 L 108.42 648.90 L 107.59 649.97 L 106.35 650.69 L 104.93 650.86 L 103.62 650.49 L 102.55 649.66 L 101.83 648.42 L 97.52 634.68 L 97.40 633.26 L 97.81 631.96 L 98.67 630.91 L 99.93 630.24 Z M 925.18 611.94 L 925.79 610.64 L 926.79 609.73 L 928.06 609.25 L 929.49 609.30 L 930.79 609.91 L 931.70 610.91 L 932.18 612.18 L 932.13 613.61 L 928.52 627.55 L 927.87 628.83 L 926.84 629.71 L 925.55 630.14 L 924.12 630.04 L 922.85 629.40 L 921.97 628.36 L 921.54 627.07 L 921.64 625.65 L 925.18 611.94 Z M 90.23 588.53 L 91.66 588.55 L 92.90 589.09 L 93.86 590.06 L 94.40 591.38 L 97.26 605.26 L 97.29 606.69 L 96.79 607.95 L 95.86 608.94 L 94.56 609.52 L 93.13 609.55 L 91.87 609.05 L 90.88 608.12 L 90.29 606.82 L 87.38 592.70 L 87.40 591.28 L 87.94 590.03 L 88.90 589.07 L 90.23 588.53 Z M 933.06 570.14 L 933.53 568.80 L 934.43 567.78 L 935.65 567.18 L 937.08 567.09 L 938.43 567.56 L 939.44 568.47 L 940.04 569.69 L 940.13 571.11 L 937.94 585.35 L 937.43 586.68 L 936.49 587.66 L 935.25 588.22 L 933.82 588.27 L 932.49 587.75 L 931.51 586.81 L 930.95 585.57 L 930.90 584.15 L 933.06 570.14 Z M 84.74 546.02 L 86.16 546.18 L 87.35 546.85 L 88.21 547.90 L 88.61 549.27 L 90.07 563.35 L 89.95 564.77 L 89.33 565.98 L 88.31 566.87 L 86.95 567.32 L 85.53 567.20 L 84.32 566.58 L 83.43 565.56 L 82.98 564.20 L 81.50 549.89 L 81.66 548.47 L 82.32 547.28 L 83.37 546.43 L 84.74 546.02 Z M 940.22 524.39 L 940.41 524.40 L 941.80 524.73 L 942.90 525.53 L 943.62 526.69 L 943.85 528.10 L 943.08 542.48 L 942.70 543.86 L 941.87 544.92 L 940.69 545.61 L 939.27 545.79 L 937.90 545.41 L 936.83 544.57 L 936.15 543.40 L 935.96 541.98 L 936.71 527.83 L 937.05 526.44 L 937.85 525.35 L 939.00 524.63 L 940.41 524.40 L 940.22 524.39 Z M 83.50 503.21 L 84.90 503.52 L 86.01 504.29 L 86.76 505.42 L 87.03 506.83 L 87.00 512.00 L 87.09 520.98 L 86.84 522.39 L 86.10 523.53 L 84.99 524.31 L 83.60 524.63 L 82.19 524.37 L 81.05 523.63 L 80.27 522.53 L 79.95 521.13 L 79.86 512.00 L 79.89 506.74 L 80.19 505.35 L 80.96 504.23 L 82.10 503.48 L 83.50 503.21 Z M 939.53 481.64 L 940.94 481.84 L 942.11 482.53 L 942.94 483.60 L 943.31 484.98 L 943.96 499.35 L 943.72 500.76 L 942.99 501.90 L 941.89 502.70 L 940.49 503.02 L 939.09 502.78 L 937.94 502.05 L 937.15 500.95 L 936.82 499.56 L 936.18 485.42 L 936.38 484.01 L 937.07 482.84 L 938.15 482.01 L 939.53 481.64 Z M 82.52 463.72 L 82.96 462.36 L 83.84 461.32 L 85.05 460.69 L 86.47 460.56 L 87.83 461.00 L 88.86 461.88 L 89.49 463.08 L 89.62 464.51 L 88.29 478.61 L 87.90 479.99 L 87.05 481.05 L 85.87 481.72 L 84.45 481.90 L 83.08 481.51 L 82.02 480.66 L 81.35 479.48 L 81.17 478.06 L 82.52 463.72 Z M 934.41 439.11 L 935.84 439.16 L 937.07 439.73 L 938.00 440.72 L 938.51 442.06 L 940.59 456.31 L 940.48 457.74 L 939.87 458.95 L 938.85 459.85 L 937.50 460.31 L 936.08 460.20 L 934.86 459.59 L 933.96 458.57 L 933.50 457.22 L 931.46 443.20 L 931.52 441.78 L 932.09 440.54 L 933.08 439.61 L 934.41 439.11 Z M 89.45 421.02 L 90.02 419.71 L 91.00 418.77 L 92.26 418.27 L 93.69 418.28 L 95.00 418.85 L 95.94 419.83 L 96.45 421.09 L 96.44 422.52 L 93.70 436.42 L 93.17 437.75 L 92.22 438.72 L 90.98 439.27 L 89.55 439.31 L 88.22 438.78 L 87.25 437.83 L 86.70 436.59 L 86.67 435.16 L 89.45 421.02 Z M 925.06 397.27 L 926.49 397.19 L 927.77 397.63 L 928.79 398.52 L 929.43 399.80 L 932.93 413.78 L 932.97 415.21 L 932.48 416.47 L 931.56 417.47 L 930.26 418.06 L 928.83 418.10 L 927.56 417.62 L 926.57 416.69 L 925.97 415.39 L 922.53 401.65 L 922.45 400.22 L 922.89 398.94 L 923.78 397.91 L 925.06 397.27 Z M 100.63 379.24 L 101.33 378.00 L 102.40 377.16 L 103.71 376.78 L 105.13 376.94 L 106.37 377.64 L 107.21 378.71 L 107.59 380.01 L 107.43 381.44 L 103.31 394.99 L 102.65 396.26 L 101.61 397.13 L 100.32 397.55 L 98.90 397.44 L 97.63 396.78 L 96.75 395.74 L 96.33 394.45 L 96.44 393.02 L 100.63 379.24 Z M 911.54 356.58 L 912.95 356.35 L 914.27 356.66 L 915.38 357.44 L 916.14 358.65 L 921.03 372.20 L 921.21 373.62 L 920.86 374.93 L 920.04 376.02 L 918.81 376.74 L 917.39 376.92 L 916.08 376.57 L 914.99 375.75 L 914.27 374.51 L 909.47 361.19 L 909.24 359.78 L 909.55 358.46 L 910.33 357.35 L 911.54 356.58 Z M 115.95 338.83 L 116.78 337.66 L 117.93 336.93 L 119.26 336.69 L 120.66 336.99 L 121.83 337.81 L 122.55 338.96 L 122.80 340.29 L 122.50 341.69 L 117.03 354.76 L 116.25 355.96 L 115.13 356.72 L 113.80 357.01 L 112.39 356.76 L 111.20 355.97 L 110.44 354.85 L 110.14 353.52 L 110.40 352.12 L 115.95 338.83 Z M 894.02 317.52 L 895.40 317.15 L 896.75 317.32 L 897.93 317.99 L 898.81 319.11 L 905.04 332.12 L 905.37 333.51 L 905.14 334.85 L 904.44 336.01 L 903.28 336.86 L 901.89 337.18 L 900.55 336.96 L 899.39 336.25 L 898.55 335.10 L 892.42 322.31 L 892.05 320.93 L 892.23 319.58 L 892.90 318.40 L 894.02 317.52 Z M 135.25 300.17 L 136.18 299.09 L 137.40 298.49 L 138.75 298.38 L 140.11 298.82 L 141.19 299.75 L 141.80 300.97 L 141.91 302.32 L 141.47 303.68 L 134.73 316.13 L 133.83 317.24 L 132.63 317.89 L 131.28 318.04 L 129.91 317.65 L 128.80 316.75 L 128.15 315.56 L 128.00 314.21 L 128.39 312.83 L 135.25 300.17 Z M 872.66 280.37 L 874.00 279.86 L 875.35 279.90 L 876.60 280.45 L 877.59 281.48 L 885.08 293.78 L 885.54 295.13 L 885.45 296.48 L 884.86 297.71 L 883.80 298.66 L 882.45 299.12 L 881.09 299.04 L 879.87 298.45 L 878.91 297.39 L 871.55 285.29 L 871.04 283.96 L 871.09 282.60 L 871.63 281.35 L 872.66 280.37 Z M 158.33 263.61 L 159.37 262.63 L 160.64 262.15 L 162.00 262.17 L 163.31 262.74 L 164.29 263.78 L 164.77 265.05 L 164.75 266.41 L 164.17 267.72 L 156.21 279.45 L 155.21 280.46 L 153.95 280.98 L 152.60 281.00 L 151.27 280.48 L 150.25 279.47 L 149.73 278.22 L 149.71 276.86 L 150.24 275.53 L 158.33 263.61 Z M 847.69 245.52 L 848.97 244.88 L 850.32 244.79 L 851.62 245.20 L 852.70 246.13 L 861.39 257.64 L 861.98 258.93 L 862.03 260.29 L 861.57 261.57 L 860.61 262.63 L 859.31 263.22 L 857.95 263.27 L 856.67 262.81 L 855.62 261.84 L 847.07 250.53 L 846.44 249.25 L 846.34 247.90 L 846.76 246.60 L 847.69 245.52 Z M 184.93 229.55 L 186.06 228.67 L 187.38 228.32 L 188.72 228.48 L 189.97 229.18 L 190.84 230.31 L 191.20 231.62 L 191.04 232.97 L 190.34 234.22 L 181.25 245.09 L 180.15 246.00 L 178.85 246.39 L 177.50 246.28 L 176.23 245.62 L 175.32 244.52 L 174.92 243.22 L 175.04 241.87 L 175.70 240.60 L 184.93 229.55 Z M 819.38 213.33 L 820.59 212.56 L 821.92 212.34 L 823.25 212.62 L 824.43 213.44 L 834.20 224.01 L 834.92 225.24 L 835.10 226.59 L 834.77 227.91 L 833.92 229.05 L 832.68 229.77 L 831.34 229.96 L 830.02 229.62 L 828.87 228.77 L 819.26 218.37 L 818.50 217.17 L 818.27 215.83 L 818.56 214.50 L 819.38 213.33 Z M 214.74 198.33 L 215.95 197.58 L 217.29 197.36 L 218.62 197.65 L 219.79 198.47 L 220.55 199.68 L 220.77 201.02 L 220.48 202.35 L 219.66 203.52 L 209.53 213.44 L 208.35 214.23 L 207.02 214.50 L 205.68 214.25 L 204.48 213.47 L 203.69 212.28 L 203.42 210.95 L 203.67 209.62 L 204.45 208.42 L 214.74 198.33 Z M 788.08 184.16 L 789.20 183.29 L 790.51 182.93 L 791.86 183.08 L 793.11 183.78 L 803.90 193.34 L 804.74 194.49 L 805.05 195.81 L 804.85 197.16 L 804.12 198.38 L 802.96 199.22 L 801.64 199.54 L 800.29 199.34 L 799.07 198.60 L 788.46 189.20 L 787.58 188.07 L 787.23 186.76 L 787.38 185.41 L 788.08 184.16 Z M 247.52 170.22 L 248.80 169.59 L 250.15 169.50 L 251.44 169.92 L 252.53 170.86 L 253.16 172.14 L 253.25 173.49 L 252.82 174.78 L 251.89 175.87 L 240.85 184.72 L 239.59 185.40 L 238.23 185.53 L 236.93 185.15 L 235.82 184.25 L 235.14 182.99 L 235.01 181.64 L 235.39 180.34 L 236.29 179.23 L 247.52 170.22 Z M 753.96 158.19 L 754.99 157.21 L 756.26 156.72 L 757.62 156.74 L 758.93 157.31 L 770.61 165.75 L 771.56 166.81 L 772.00 168.10 L 771.94 169.45 L 771.33 170.75 L 770.26 171.70 L 768.98 172.14 L 767.62 172.08 L 766.33 171.47 L 754.84 163.17 L 753.86 162.13 L 753.37 160.86 L 753.39 159.51 L 753.96 158.19 Z M 282.98 145.47 L 284.32 144.97 L 285.67 145.01 L 286.92 145.56 L 287.90 146.60 L 288.40 147.94 L 288.35 149.30 L 287.80 150.54 L 286.77 151.52 L 274.90 159.23 L 273.58 159.78 L 272.22 159.78 L 270.96 159.27 L 269.94 158.26 L 269.40 156.94 L 269.40 155.59 L 269.91 154.33 L 270.91 153.31 L 282.98 145.47 Z M 717.46 135.78 L 718.40 134.70 L 719.61 134.09 L 720.96 133.97 L 722.32 134.40 L 734.78 141.63 L 735.83 142.60 L 736.40 143.83 L 736.47 145.19 L 735.99 146.53 L 735.03 147.59 L 733.79 148.16 L 732.44 148.23 L 731.09 147.75 L 718.84 140.64 L 717.76 139.71 L 717.15 138.50 L 717.03 137.14 L 717.46 135.78 Z M 320.69 124.40 L 322.07 124.04 L 323.42 124.22 L 324.60 124.89 L 325.48 126.02 L 325.84 127.40 L 325.66 128.75 L 324.99 129.93 L 323.86 130.81 L 311.27 137.29 L 309.90 137.71 L 308.55 137.57 L 307.35 136.94 L 306.44 135.84 L 306.02 134.47 L 306.16 133.12 L 306.79 131.91 L 307.89 131.00 L 320.69 124.40 Z M 678.85 117.11 L 679.67 115.93 L 680.82 115.20 L 682.15 114.95 L 683.55 115.25 L 696.67 121.19 L 697.82 122.05 L 698.51 123.22 L 698.72 124.56 L 698.37 125.95 L 697.52 127.09 L 696.35 127.78 L 695.01 127.99 L 693.62 127.65 L 680.71 121.80 L 679.54 120.98 L 678.81 119.84 L 678.56 118.50 L 678.85 117.11 Z M 360.30 107.24 L 361.71 107.01 L 363.03 107.33 L 364.14 108.11 L 364.90 109.33 L 365.12 110.74 L 364.80 112.06 L 364.02 113.16 L 362.81 113.92 L 349.62 119.12 L 348.22 119.39 L 346.89 119.12 L 345.76 118.37 L 344.96 117.19 L 344.68 115.78 L 344.96 114.45 L 345.71 113.32 L 346.89 112.52 L 360.30 107.24 Z M 638.58 102.41 L 639.28 101.16 L 640.34 100.32 L 641.64 99.94 L 643.07 100.09 L 656.72 104.69 L 657.94 105.42 L 658.75 106.52 L 659.09 107.83 L 658.89 109.25 L 658.15 110.47 L 657.06 111.28 L 655.74 111.62 L 654.33 111.42 L 640.90 106.90 L 639.65 106.20 L 638.81 105.14 L 638.43 103.83 L 638.58 102.41 Z M 401.52 94.11 L 402.95 94.03 L 404.23 94.48 L 405.25 95.37 L 405.88 96.65 L 405.96 98.08 L 405.51 99.36 L 404.62 100.38 L 403.34 101.02 L 389.71 104.86 L 388.29 104.98 L 386.99 104.58 L 385.94 103.72 L 385.27 102.46 L 385.14 101.04 L 385.54 99.74 L 386.40 98.69 L 387.66 98.01 L 401.52 94.11 Z M 597.04 91.85 L 597.61 90.54 L 598.58 89.59 L 599.84 89.08 L 601.27 89.09 L 615.31 92.29 L 616.61 92.90 L 617.52 93.90 L 617.99 95.18 L 617.93 96.61 L 617.32 97.90 L 616.31 98.81 L 615.04 99.28 L 613.61 99.22 L 599.80 96.08 L 598.49 95.51 L 597.54 94.54 L 597.03 93.28 L 597.04 91.85 Z M 443.79 85.21 L 445.21 85.27 L 446.44 85.85 L 447.37 86.84 L 447.87 88.18 L 447.81 89.61 L 447.23 90.84 L 446.24 91.76 L 444.90 92.27 L 430.96 94.72 L 429.53 94.70 L 428.28 94.17 L 427.32 93.21 L 426.78 91.89 L 426.79 90.46 L 427.33 89.21 L 428.29 88.25 L 429.61 87.70 L 443.79 85.21 Z M 554.65 85.51 L 555.08 84.15 L 555.95 83.11 L 557.15 82.47 L 558.58 82.34 L 572.87 84.11 L 574.22 84.59 L 575.23 85.50 L 575.82 86.72 L 575.91 88.15 L 575.43 89.49 L 574.52 90.50 L 573.30 91.10 L 571.88 91.18 L 557.82 89.44 L 556.45 89.01 L 555.42 88.13 L 554.78 86.93 L 554.65 85.51 Z M 486.73 80.58 L 488.14 80.79 L 489.31 81.48 L 490.13 82.56 L 490.50 83.94 L 490.29 85.36 L 489.60 86.53 L 488.52 87.35 L 487.14 87.72 L 473.00 88.77 L 471.58 88.61 L 470.39 87.95 L 469.53 86.90 L 469.12 85.53 L 469.28 84.11 L 469.93 82.92 L 470.98 82.06 L 472.35 81.65 L 486.73 80.58 Z M 515.49 79.87 L 529.89 80.22 L 531.28 80.56 L 532.37 81.37 L 533.09 82.52 L 533.32 83.93 L 532.97 85.32 L 532.17 86.42 L 531.01 87.13 L 529.60 87.36 L 515.44 87.01 L 514.04 86.72 L 512.92 85.95 L 512.17 84.82 L 511.89 83.41 L 512.19 82.02 L 512.96 80.90 L 514.09 80.14 L 515.49 79.87 Z" fill="#ebedf0" fill-opacity="0.6587904" fill-rule="nonzero" group-id="1,2" id="椭圆形" node-id="52" stroke="none" target-height="864.2719" target-width="864.10406" target-x="79.85717" target-y="79.870995"></path><g node-id="229"><g node-id="237"><path d="M 912.00 512.00 L 911.68 527.95 L 910.74 543.75 L 909.18 559.42 L 907.02 574.97 L 904.24 590.40 L 900.86 605.74 L 896.90 620.87 L 892.36 635.79 L 887.25 650.52 L 881.55 665.07 L 875.29 679.39 L 868.49 693.42 L 861.15 707.18 L 853.25 720.68 L 844.80 733.92 L 835.84 746.80 L 826.38 759.32 L 816.40 771.50 L 805.89 783.33 L 794.84 794.84 L 783.33 805.89 L 771.50 816.40 L 759.32 826.38 L 746.80 835.84 L 733.92 844.80 L 720.68 853.25 L 707.18 861.15 L 693.42 868.49 L 679.39 875.29 L 665.07 881.55 L 650.52 887.25 L 635.79 892.36 L 620.87 896.90 L 605.74 900.86 L 590.40 904.24 L 574.97 907.02 L 559.42 909.18 L 543.75 910.74 L 527.95 911.68 L 512.00 912.00 L 496.05 911.68 L 480.25 910.74 L 464.58 909.18 L 449.03 907.02 L 433.60 904.24 L 418.26 900.86 L 403.13 896.90 L 388.21 892.36 L 373.48 887.25 L 358.93 881.55 L 344.61 875.29 L 330.58 868.49 L 316.82 861.15 L 303.32 853.25 L 290.08 844.80 L 277.20 835.84 L 264.68 826.38 L 252.50 816.40 L 240.67 805.89 L 229.16 794.84 L 218.11 783.33 L 207.60 771.50 L 197.62 759.32 L 188.16 746.80 L 179.20 733.92 L 170.75 720.68 L 162.85 707.18 L 155.51 693.42 L 148.71 679.39 L 142.45 665.07 L 136.75 650.52 L 131.64 635.79 L 127.10 620.87 L 123.14 605.74 L 119.76 590.40 L 116.98 574.97 L 114.82 559.42 L 113.26 543.75 L 112.32 527.95 L 112.00 512.00 L 112.32 496.05 L 113.26 480.25 L 114.82 464.58 L 116.98 449.03 L 119.76 433.60 L 123.14 418.26 L 127.10 403.13 L 131.64 388.21 L 136.75 373.48 L 142.45 358.93 L 148.71 344.61 L 155.51 330.58 L 162.85 316.82 L 170.75 303.32 L 179.20 290.08 L 188.16 277.20 L 197.62 264.68 L 207.60 252.50 L 218.11 240.67 L 229.16 229.16 L 240.67 218.11 L 252.50 207.60 L 264.68 197.62 L 277.20 188.16 L 290.08 179.20 L 303.32 170.75 L 316.82 162.85 L 330.58 155.51 L 344.61 148.71 L 358.93 142.45 L 373.48 136.75 L 388.21 131.64 L 403.13 127.10 L 418.26 123.14 L 433.60 119.76 L 449.03 116.98 L 464.58 114.82 L 480.25 113.26 L 496.05 112.32 L 512.00 112.00 L 527.95 112.32 L 543.75 113.26 L 559.42 114.82 L 574.97 116.98 L 590.40 119.76 L 605.74 123.14 L 620.87 127.10 L 635.79 131.64 L 650.52 136.75 L 665.07 142.45 L 679.39 148.71 L 693.42 155.51 L 707.18 162.85 L 720.68 170.75 L 733.92 179.20 L 746.80 188.16 L 759.32 197.62 L 771.50 207.60 L 783.33 218.11 L 794.84 229.16 L 805.89 240.67 L 816.40 252.50 L 826.38 264.68 L 835.84 277.20 L 844.80 290.08 L 853.25 303.32 L 861.15 316.82 L 868.49 330.58 L 875.29 344.61 L 881.55 358.93 L 887.25 373.48 L 892.36 388.21 L 896.90 403.13 L 900.86 418.26 L 904.24 433.60 L 907.02 449.03 L 909.18 464.58 L 910.74 480.25 L 911.68 496.05 L 912.00 512.00 Z" fill="url(#linearGradient-1)" fill-rule="evenodd" group-id="1,2,4,12" node-id="178" stroke="none" target-height="800" target-width="800" target-x="112" target-y="112"></path></g><g clip-path="url(#mask-3)" group-id="1,2,4,13" node-id="181"><path d="M 779.75 572.71 L 781.15 573.00 L 782.27 573.76 L 783.03 574.89 L 783.32 576.29 L 783.03 577.69 L 782.27 578.81 L 781.15 579.57 L 779.75 579.86 L 772.60 579.86 L 771.20 579.57 L 770.08 578.81 L 769.32 577.69 L 769.03 576.29 L 769.32 574.89 L 770.08 573.76 L 771.20 573.00 L 772.60 572.71 L 779.75 572.71 Z M 608.32 572.71 L 609.72 573.00 L 610.84 573.76 L 611.61 574.89 L 611.89 576.29 L 611.61 577.69 L 610.84 578.81 L 609.72 579.57 L 608.32 579.86 L 601.18 579.86 L 599.78 579.57 L 598.65 578.81 L 597.89 577.69 L 597.60 576.29 L 597.89 574.89 L 598.65 573.76 L 599.78 573.00 L 601.18 572.71 L 608.32 572.71 Z M 636.89 572.71 L 638.29 573.00 L 639.42 573.76 L 640.18 574.89 L 640.46 576.29 L 640.18 577.69 L 639.42 578.81 L 638.29 579.57 L 636.89 579.86 L 629.75 579.86 L 628.35 579.57 L 627.22 578.81 L 626.46 577.69 L 626.18 576.29 L 626.46 574.89 L 627.22 573.76 L 628.35 573.00 L 629.75 572.71 L 636.89 572.71 Z M 665.46 572.71 L 666.86 573.00 L 667.99 573.76 L 668.75 574.89 L 669.03 576.29 L 668.75 577.69 L 667.99 578.81 L 666.86 579.57 L 665.46 579.86 L 658.32 579.86 L 656.92 579.57 L 655.79 578.81 L 655.03 577.69 L 654.75 576.29 L 655.03 574.89 L 655.79 573.76 L 656.92 573.00 L 658.32 572.71 L 665.46 572.71 Z M 694.03 572.71 L 695.43 573.00 L 696.56 573.76 L 697.32 574.89 L 697.60 576.29 L 697.32 577.69 L 696.56 578.81 L 695.43 579.57 L 694.03 579.86 L 686.89 579.86 L 685.49 579.57 L 684.36 578.81 L 683.60 577.69 L 683.32 576.29 L 683.60 574.89 L 684.36 573.76 L 685.49 573.00 L 686.89 572.71 L 694.03 572.71 Z M 722.60 572.71 L 724.00 573.00 L 725.13 573.76 L 725.89 574.89 L 726.18 576.29 L 725.89 577.69 L 725.13 578.81 L 724.00 579.57 L 722.60 579.86 L 715.46 579.86 L 714.06 579.57 L 712.94 578.81 L 712.18 577.69 L 711.89 576.29 L 712.18 574.89 L 712.94 573.76 L 714.06 573.00 L 715.46 572.71 L 722.60 572.71 Z M 751.18 572.71 L 752.58 573.00 L 753.70 573.76 L 754.46 574.89 L 754.75 576.29 L 754.46 577.69 L 753.70 578.81 L 752.58 579.57 L 751.18 579.86 L 744.03 579.86 L 742.63 579.57 L 741.51 578.81 L 740.75 577.69 L 740.46 576.29 L 740.75 574.89 L 741.51 573.76 L 742.63 573.00 L 744.03 572.71 L 751.18 572.71 Z M 579.75 572.71 L 581.15 573.00 L 582.27 573.76 L 583.03 574.89 L 583.32 576.29 L 583.03 577.69 L 582.27 578.81 L 581.15 579.57 L 579.75 579.86 L 572.60 579.86 L 571.20 579.57 L 570.08 578.81 L 569.32 577.69 L 569.03 576.29 L 569.32 574.89 L 570.08 573.76 L 571.20 573.00 L 572.60 572.71 L 579.75 572.71 Z M 236.89 572.71 L 238.29 573.00 L 239.42 573.76 L 240.18 574.89 L 240.46 576.29 L 240.18 577.69 L 239.42 578.81 L 238.29 579.57 L 236.89 579.86 L 229.75 579.86 L 228.35 579.57 L 227.22 578.81 L 226.46 577.69 L 226.18 576.29 L 226.46 574.89 L 227.22 573.76 L 228.35 573.00 L 229.75 572.71 L 236.89 572.71 Z M 265.46 572.71 L 266.86 573.00 L 267.99 573.76 L 268.75 574.89 L 269.03 576.29 L 268.75 577.69 L 267.99 578.81 L 266.86 579.57 L 265.46 579.86 L 258.32 579.86 L 256.92 579.57 L 255.79 578.81 L 255.03 577.69 L 254.75 576.29 L 255.03 574.89 L 255.79 573.76 L 256.92 573.00 L 258.32 572.71 L 265.46 572.71 Z M 294.03 572.71 L 295.43 573.00 L 296.56 573.76 L 297.32 574.89 L 297.60 576.29 L 297.32 577.69 L 296.56 578.81 L 295.43 579.57 L 294.03 579.86 L 286.89 579.86 L 285.49 579.57 L 284.36 578.81 L 283.60 577.69 L 283.32 576.29 L 283.60 574.89 L 284.36 573.76 L 285.49 573.00 L 286.89 572.71 L 294.03 572.71 Z M 322.60 572.71 L 324.00 573.00 L 325.13 573.76 L 325.89 574.89 L 326.18 576.29 L 325.89 577.69 L 325.13 578.81 L 324.00 579.57 L 322.60 579.86 L 315.46 579.86 L 314.06 579.57 L 312.94 578.81 L 312.18 577.69 L 311.89 576.29 L 312.18 574.89 L 312.94 573.76 L 314.06 573.00 L 315.46 572.71 L 322.60 572.71 Z M 351.18 572.71 L 352.58 573.00 L 353.70 573.76 L 354.46 574.89 L 354.75 576.29 L 354.46 577.69 L 353.70 578.81 L 352.58 579.57 L 351.18 579.86 L 344.03 579.86 L 342.63 579.57 L 341.51 578.81 L 340.75 577.69 L 340.46 576.29 L 340.75 574.89 L 341.51 573.76 L 342.63 573.00 L 344.03 572.71 L 351.18 572.71 Z M 379.75 572.71 L 381.15 573.00 L 382.27 573.76 L 383.03 574.89 L 383.32 576.29 L 383.03 577.69 L 382.27 578.81 L 381.15 579.57 L 379.75 579.86 L 372.60 579.86 L 371.20 579.57 L 370.08 578.81 L 369.32 577.69 L 369.03 576.29 L 369.32 574.89 L 370.08 573.76 L 371.20 573.00 L 372.60 572.71 L 379.75 572.71 Z M 408.32 572.71 L 409.72 573.00 L 410.84 573.76 L 411.61 574.89 L 411.89 576.29 L 411.61 577.69 L 410.84 578.81 L 409.72 579.57 L 408.32 579.86 L 401.18 579.86 L 399.78 579.57 L 398.65 578.81 L 397.89 577.69 L 397.60 576.29 L 397.89 574.89 L 398.65 573.76 L 399.78 573.00 L 401.18 572.71 L 408.32 572.71 Z M 436.89 572.71 L 438.29 573.00 L 439.42 573.76 L 440.18 574.89 L 440.46 576.29 L 440.18 577.69 L 439.42 578.81 L 438.29 579.57 L 436.89 579.86 L 429.75 579.86 L 428.35 579.57 L 427.22 578.81 L 426.46 577.69 L 426.18 576.29 L 426.46 574.89 L 427.22 573.76 L 428.35 573.00 L 429.75 572.71 L 436.89 572.71 Z M 465.46 572.71 L 466.86 573.00 L 467.99 573.76 L 468.75 574.89 L 469.03 576.29 L 468.75 577.69 L 467.99 578.81 L 466.86 579.57 L 465.46 579.86 L 458.32 579.86 L 456.92 579.57 L 455.79 578.81 L 455.03 577.69 L 454.75 576.29 L 455.03 574.89 L 455.79 573.76 L 456.92 573.00 L 458.32 572.71 L 465.46 572.71 Z M 494.03 572.71 L 495.43 573.00 L 496.56 573.76 L 497.32 574.89 L 497.60 576.29 L 497.32 577.69 L 496.56 578.81 L 495.43 579.57 L 494.03 579.86 L 486.89 579.86 L 485.49 579.57 L 484.36 578.81 L 483.60 577.69 L 483.32 576.29 L 483.60 574.89 L 484.36 573.76 L 485.49 573.00 L 486.89 572.71 L 494.03 572.71 Z M 522.60 572.71 L 524.00 573.00 L 525.13 573.76 L 525.89 574.89 L 526.18 576.29 L 525.89 577.69 L 525.13 578.81 L 524.00 579.57 L 522.60 579.86 L 515.46 579.86 L 514.06 579.57 L 512.94 578.81 L 512.18 577.69 L 511.89 576.29 L 512.18 574.89 L 512.94 573.76 L 514.06 573.00 L 515.46 572.71 L 522.60 572.71 Z M 551.18 572.71 L 552.58 573.00 L 553.70 573.76 L 554.46 574.89 L 554.75 576.29 L 554.46 577.69 L 553.70 578.81 L 552.58 579.57 L 551.18 579.86 L 544.03 579.86 L 542.63 579.57 L 541.51 578.81 L 540.75 577.69 L 540.46 576.29 L 540.75 574.89 L 541.51 573.76 L 542.63 573.00 L 544.03 572.71 L 551.18 572.71 Z M 807.98 572.56 L 809.40 572.71 L 810.60 573.36 L 811.46 574.40 L 811.88 575.77 L 811.74 577.19 L 811.09 578.38 L 810.04 579.25 L 808.68 579.67 L 804.87 579.86 L 801.18 579.86 L 799.78 579.57 L 798.65 578.81 L 797.89 577.69 L 797.60 576.29 L 797.89 574.89 L 798.65 573.76 L 799.78 573.00 L 801.18 572.71 L 804.87 572.71 L 807.98 572.56 Z M 198.92 569.75 L 199.89 568.70 L 201.12 568.13 L 202.48 568.07 L 203.82 568.55 L 206.60 570.03 L 209.57 571.21 L 210.81 571.92 L 211.64 573.00 L 212.01 574.30 L 211.84 575.72 L 211.13 576.96 L 210.05 577.79 L 208.75 578.16 L 207.33 577.99 L 203.60 576.52 L 200.11 574.65 L 199.06 573.68 L 198.50 572.45 L 198.43 571.09 L 198.92 569.75 Z M 828.94 559.94 L 829.93 558.91 L 831.18 558.37 L 832.53 558.33 L 833.87 558.84 L 834.90 559.83 L 835.44 561.07 L 835.48 562.43 L 834.98 563.76 L 832.64 567.01 L 829.95 569.96 L 828.75 570.73 L 827.41 570.97 L 826.08 570.69 L 824.90 569.89 L 824.13 568.69 L 823.89 567.35 L 824.16 566.02 L 824.97 564.84 L 827.10 562.51 L 828.94 559.94 Z M 186.94 544.57 L 188.36 544.71 L 189.56 545.35 L 190.44 546.39 L 190.87 547.75 L 191.38 550.93 L 192.22 553.97 L 192.39 555.38 L 192.03 556.69 L 191.21 557.77 L 189.97 558.49 L 188.55 558.67 L 187.24 558.30 L 186.16 557.48 L 185.45 556.24 L 184.40 552.45 L 183.76 548.50 L 183.90 547.08 L 184.54 545.88 L 185.58 545.00 L 186.94 544.57 Z M 835.57 530.64 L 836.99 530.77 L 838.19 531.40 L 839.07 532.44 L 839.51 533.80 L 840.21 540.18 L 840.28 540.97 L 840.13 542.39 L 839.47 543.58 L 838.42 544.43 L 837.05 544.84 L 835.63 544.69 L 834.44 544.03 L 833.58 542.98 L 833.17 541.61 L 833.11 540.96 L 832.40 534.58 L 832.54 533.15 L 833.17 531.95 L 834.20 531.07 L 835.57 530.64 Z M 186.08 519.38 L 186.51 518.02 L 187.39 516.98 L 188.59 516.35 L 190.02 516.22 L 191.38 516.65 L 192.41 517.53 L 193.05 518.73 L 193.18 520.16 L 192.40 527.26 L 191.96 528.62 L 191.08 529.65 L 189.88 530.29 L 188.46 530.42 L 187.10 529.98 L 186.06 529.10 L 185.43 527.90 L 185.30 526.48 L 186.08 519.38 Z M 832.45 502.24 L 833.87 502.37 L 835.08 503.00 L 835.95 504.03 L 836.39 505.40 L 837.17 512.50 L 837.04 513.92 L 836.40 515.12 L 835.37 516.00 L 834.01 516.44 L 832.59 516.30 L 831.38 515.67 L 830.51 514.64 L 830.07 513.27 L 829.29 506.17 L 829.42 504.75 L 830.06 503.55 L 831.09 502.67 L 832.45 502.24 Z M 189.19 490.98 L 189.63 489.62 L 190.51 488.58 L 191.71 487.95 L 193.13 487.82 L 194.49 488.25 L 195.53 489.13 L 196.16 490.33 L 196.29 491.76 L 195.51 498.86 L 195.08 500.22 L 194.20 501.25 L 193.00 501.89 L 191.57 502.02 L 190.21 501.58 L 189.18 500.70 L 188.54 499.50 L 188.41 498.08 L 189.19 490.98 Z M 829.34 473.83 L 830.76 473.96 L 831.96 474.60 L 832.84 475.63 L 833.28 476.99 L 834.06 484.09 L 833.92 485.52 L 833.29 486.72 L 832.26 487.60 L 830.89 488.03 L 829.47 487.90 L 828.27 487.27 L 827.39 486.23 L 826.95 484.87 L 826.18 477.77 L 826.31 476.35 L 826.94 475.15 L 827.98 474.27 L 829.34 473.83 Z M 192.30 462.58 L 192.74 461.21 L 193.62 460.18 L 194.82 459.55 L 196.24 459.41 L 197.60 459.85 L 198.64 460.73 L 199.27 461.93 L 199.40 463.35 L 198.63 470.45 L 198.19 471.82 L 197.31 472.85 L 196.11 473.48 L 194.69 473.62 L 193.33 473.18 L 192.29 472.30 L 191.66 471.10 L 191.53 469.68 L 192.30 462.58 Z M 826.22 445.43 L 827.65 445.56 L 828.85 446.20 L 829.73 447.23 L 830.16 448.59 L 830.94 455.69 L 830.81 457.12 L 830.18 458.32 L 829.14 459.20 L 827.78 459.63 L 826.36 459.50 L 825.16 458.87 L 824.28 457.83 L 823.84 456.47 L 823.06 449.37 L 823.19 447.95 L 823.83 446.75 L 824.86 445.87 L 826.22 445.43 Z M 195.42 434.17 L 195.85 432.81 L 196.73 431.78 L 197.93 431.14 L 199.36 431.01 L 200.72 431.45 L 201.75 432.33 L 202.39 433.53 L 202.52 434.95 L 201.74 442.05 L 201.30 443.41 L 200.43 444.45 L 199.22 445.08 L 197.80 445.21 L 196.44 444.78 L 195.40 443.90 L 194.77 442.70 L 194.64 441.27 L 195.42 434.17 Z M 822.19 417.17 L 823.62 417.09 L 824.90 417.55 L 825.92 418.45 L 826.54 419.73 L 827.22 422.78 L 827.67 425.88 L 827.83 427.29 L 827.70 428.72 L 827.06 429.92 L 826.03 430.80 L 824.67 431.23 L 823.24 431.10 L 822.04 430.47 L 821.16 429.43 L 820.73 428.07 L 820.57 426.66 L 820.19 424.08 L 819.63 421.52 L 819.55 420.10 L 820.01 418.82 L 820.91 417.80 L 822.19 417.17 Z M 204.00 405.48 L 205.03 404.49 L 206.29 403.99 L 207.65 404.01 L 208.96 404.57 L 209.95 405.60 L 210.45 406.86 L 210.43 408.22 L 209.87 409.54 L 208.13 412.31 L 206.63 415.21 L 205.79 416.36 L 204.62 417.06 L 203.28 417.28 L 201.89 416.95 L 200.74 416.10 L 200.04 414.94 L 199.82 413.60 L 200.15 412.21 L 201.93 408.76 L 204.00 405.48 Z M 804.42 395.42 L 805.47 394.45 L 806.75 393.99 L 808.11 394.03 L 809.41 394.62 L 812.44 397.02 L 815.28 399.71 L 816.05 400.91 L 816.28 402.25 L 816.00 403.58 L 815.19 404.76 L 813.99 405.53 L 812.65 405.76 L 811.32 405.48 L 810.14 404.68 L 807.76 402.42 L 805.22 400.41 L 804.26 399.35 L 803.79 398.08 L 803.83 396.72 L 804.42 395.42 Z M 229.10 387.94 L 230.52 387.90 L 231.79 388.39 L 232.79 389.32 L 233.38 390.62 L 233.42 392.05 L 232.93 393.31 L 232.00 394.31 L 230.70 394.90 L 227.64 395.78 L 224.63 396.98 L 223.24 397.31 L 221.90 397.08 L 220.74 396.38 L 219.89 395.22 L 219.57 393.83 L 219.79 392.49 L 220.50 391.33 L 221.65 390.49 L 225.33 389.02 L 229.10 387.94 Z M 786.71 387.00 L 787.36 387.01 L 788.75 387.32 L 789.86 388.10 L 790.61 389.24 L 790.86 390.64 L 790.55 392.04 L 789.77 393.15 L 788.63 393.89 L 787.23 394.15 L 786.71 394.14 L 780.15 394.14 L 778.75 393.86 L 777.63 393.10 L 776.86 391.97 L 776.58 390.57 L 776.86 389.17 L 777.63 388.05 L 778.75 387.28 L 780.15 387.00 L 786.71 387.00 Z M 758.72 387.00 L 760.12 387.28 L 761.25 388.05 L 762.01 389.17 L 762.29 390.57 L 762.01 391.97 L 761.25 393.10 L 760.12 393.86 L 758.72 394.14 L 751.58 394.14 L 750.18 393.86 L 749.05 393.10 L 748.29 391.97 L 748.01 390.57 L 748.29 389.17 L 749.05 388.05 L 750.18 387.28 L 751.58 387.00 L 758.72 387.00 Z M 730.15 387.00 L 731.55 387.28 L 732.68 388.05 L 733.44 389.17 L 733.72 390.57 L 733.44 391.97 L 732.68 393.10 L 731.55 393.86 L 730.15 394.14 L 723.01 394.14 L 721.61 393.86 L 720.48 393.10 L 719.72 391.97 L 719.44 390.57 L 719.72 389.17 L 720.48 388.05 L 721.61 387.28 L 723.01 387.00 L 730.15 387.00 Z M 701.58 387.00 L 702.98 387.28 L 704.10 388.05 L 704.87 389.17 L 705.15 390.57 L 704.87 391.97 L 704.10 393.10 L 702.98 393.86 L 701.58 394.14 L 694.44 394.14 L 693.04 393.86 L 691.91 393.10 L 691.15 391.97 L 690.86 390.57 L 691.15 389.17 L 691.91 388.05 L 693.04 387.28 L 694.44 387.00 L 701.58 387.00 Z M 673.01 387.00 L 674.41 387.28 L 675.53 388.05 L 676.29 389.17 L 676.58 390.57 L 676.29 391.97 L 675.53 393.10 L 674.41 393.86 L 673.01 394.14 L 665.86 394.14 L 664.46 393.86 L 663.34 393.10 L 662.58 391.97 L 662.29 390.57 L 662.58 389.17 L 663.34 388.05 L 664.46 387.28 L 665.86 387.00 L 673.01 387.00 Z M 644.44 387.00 L 645.84 387.28 L 646.96 388.05 L 647.72 389.17 L 648.01 390.57 L 647.72 391.97 L 646.96 393.10 L 645.84 393.86 L 644.44 394.14 L 637.29 394.14 L 635.89 393.86 L 634.77 393.10 L 634.01 391.97 L 633.72 390.57 L 634.01 389.17 L 634.77 388.05 L 635.89 387.28 L 637.29 387.00 L 644.44 387.00 Z M 615.86 387.00 L 617.27 387.28 L 618.39 388.05 L 619.15 389.17 L 619.44 390.57 L 619.15 391.97 L 618.39 393.10 L 617.27 393.86 L 615.86 394.14 L 608.72 394.14 L 607.32 393.86 L 606.20 393.10 L 605.44 391.97 L 605.15 390.57 L 605.44 389.17 L 606.20 388.05 L 607.32 387.28 L 608.72 387.00 L 615.86 387.00 Z M 587.29 387.00 L 588.69 387.28 L 589.82 388.05 L 590.58 389.17 L 590.86 390.57 L 590.58 391.97 L 589.82 393.10 L 588.69 393.86 L 587.29 394.14 L 580.15 394.14 L 578.75 393.86 L 577.63 393.10 L 576.86 391.97 L 576.58 390.57 L 576.86 389.17 L 577.63 388.05 L 578.75 387.28 L 580.15 387.00 L 587.29 387.00 Z M 558.72 387.00 L 560.12 387.28 L 561.25 388.05 L 562.01 389.17 L 562.29 390.57 L 562.01 391.97 L 561.25 393.10 L 560.12 393.86 L 558.72 394.14 L 551.58 394.14 L 550.18 393.86 L 549.05 393.10 L 548.29 391.97 L 548.01 390.57 L 548.29 389.17 L 549.05 388.05 L 550.18 387.28 L 551.58 387.00 L 558.72 387.00 Z M 530.15 387.00 L 531.55 387.28 L 532.68 388.05 L 533.44 389.17 L 533.72 390.57 L 533.44 391.97 L 532.68 393.10 L 531.55 393.86 L 530.15 394.14 L 523.01 394.14 L 521.61 393.86 L 520.48 393.10 L 519.72 391.97 L 519.44 390.57 L 519.72 389.17 L 520.48 388.05 L 521.61 387.28 L 523.01 387.00 L 530.15 387.00 Z M 501.58 387.00 L 502.98 387.28 L 504.10 388.05 L 504.87 389.17 L 505.15 390.57 L 504.87 391.97 L 504.10 393.10 L 502.98 393.86 L 501.58 394.14 L 494.44 394.14 L 493.04 393.86 L 491.91 393.10 L 491.15 391.97 L 490.86 390.57 L 491.15 389.17 L 491.91 388.05 L 493.04 387.28 L 494.44 387.00 L 501.58 387.00 Z M 473.01 387.00 L 474.41 387.28 L 475.53 388.05 L 476.29 389.17 L 476.58 390.57 L 476.29 391.97 L 475.53 393.10 L 474.41 393.86 L 473.01 394.14 L 465.86 394.14 L 464.46 393.86 L 463.34 393.10 L 462.58 391.97 L 462.29 390.57 L 462.58 389.17 L 463.34 388.05 L 464.46 387.28 L 465.86 387.00 L 473.01 387.00 Z M 444.44 387.00 L 445.84 387.28 L 446.96 388.05 L 447.72 389.17 L 448.01 390.57 L 447.72 391.97 L 446.96 393.10 L 445.84 393.86 L 444.44 394.14 L 437.29 394.14 L 435.89 393.86 L 434.77 393.10 L 434.01 391.97 L 433.72 390.57 L 434.01 389.17 L 434.77 388.05 L 435.89 387.28 L 437.29 387.00 L 444.44 387.00 Z M 415.86 387.00 L 417.27 387.28 L 418.39 388.05 L 419.15 389.17 L 419.44 390.57 L 419.15 391.97 L 418.39 393.10 L 417.27 393.86 L 415.86 394.14 L 408.72 394.14 L 407.32 393.86 L 406.20 393.10 L 405.44 391.97 L 405.15 390.57 L 405.44 389.17 L 406.20 388.05 L 407.32 387.28 L 408.72 387.00 L 415.86 387.00 Z M 387.29 387.00 L 388.69 387.28 L 389.82 388.05 L 390.58 389.17 L 390.86 390.57 L 390.58 391.97 L 389.82 393.10 L 388.69 393.86 L 387.29 394.14 L 380.15 394.14 L 378.75 393.86 L 377.63 393.10 L 376.86 391.97 L 376.58 390.57 L 376.86 389.17 L 377.63 388.05 L 378.75 387.28 L 380.15 387.00 L 387.29 387.00 Z M 358.72 387.00 L 360.12 387.28 L 361.25 388.05 L 362.01 389.17 L 362.29 390.57 L 362.01 391.97 L 361.25 393.10 L 360.12 393.86 L 358.72 394.14 L 351.58 394.14 L 350.18 393.86 L 349.05 393.10 L 348.29 391.97 L 348.01 390.57 L 348.29 389.17 L 349.05 388.05 L 350.18 387.28 L 351.58 387.00 L 358.72 387.00 Z M 330.15 387.00 L 331.55 387.28 L 332.68 388.05 L 333.44 389.17 L 333.72 390.57 L 333.44 391.97 L 332.68 393.10 L 331.55 393.86 L 330.15 394.14 L 323.01 394.14 L 321.61 393.86 L 320.48 393.10 L 319.72 391.97 L 319.44 390.57 L 319.72 389.17 L 320.48 388.05 L 321.61 387.28 L 323.01 387.00 L 330.15 387.00 Z M 301.58 387.00 L 302.98 387.28 L 304.10 388.05 L 304.87 389.17 L 305.15 390.57 L 304.87 391.97 L 304.10 393.10 L 302.98 393.86 L 301.58 394.14 L 294.44 394.14 L 293.04 393.86 L 291.91 393.10 L 291.15 391.97 L 290.86 390.57 L 291.15 389.17 L 291.91 388.05 L 293.04 387.28 L 294.44 387.00 L 301.58 387.00 Z M 273.01 387.00 L 274.41 387.28 L 275.53 388.05 L 276.29 389.17 L 276.58 390.57 L 276.29 391.97 L 275.53 393.10 L 274.41 393.86 L 273.01 394.14 L 265.86 394.14 L 264.46 393.86 L 263.34 393.10 L 262.58 391.97 L 262.29 390.57 L 262.58 389.17 L 263.34 388.05 L 264.46 387.28 L 265.86 387.00 L 273.01 387.00 Z M 244.44 387.00 L 245.84 387.28 L 246.96 388.05 L 247.72 389.17 L 248.01 390.57 L 247.72 391.97 L 246.96 393.10 L 245.84 393.86 L 244.44 394.14 L 237.29 394.14 L 235.89 393.86 L 234.77 393.10 L 234.01 391.97 L 233.72 390.57 L 234.01 389.17 L 234.77 388.05 L 235.89 387.28 L 237.29 387.00 L 244.44 387.00 Z" fill="#0f5eff" fill-rule="nonzero" group-id="1,2,4,13" id="矩形" node-id="57" stroke="none" target-height="192.85718" target-width="656.5187" target-x="183.76498" target-y="387"></path></g></g><g node-id="230"><path d="M 826.29 140.57 L 826.04 143.18 L 825.39 145.57 L 824.34 147.78 L 822.92 149.79 L 821.21 151.49 L 819.21 152.91 L 817.00 153.96 L 814.61 154.61 L 812.00 154.86 L 809.39 154.61 L 807.00 153.96 L 804.79 152.91 L 802.78 151.49 L 801.08 149.79 L 799.66 147.78 L 798.61 145.57 L 797.96 143.18 L 797.71 140.57 L 797.96 137.96 L 798.61 135.57 L 799.66 133.36 L 801.08 131.36 L 802.78 129.66 L 804.79 128.24 L 807.00 127.18 L 809.39 126.53 L 812.00 126.29 L 814.61 126.53 L 817.00 127.18 L 819.21 128.24 L 821.22 129.66 L 822.92 131.36 L 824.34 133.36 L 825.39 135.57 L 826.04 137.96 L 826.29 140.57 Z" fill="#edf0f5" fill-opacity="0.6" fill-rule="evenodd" group-id="1,2,5" id="椭圆形" node-id="58" stroke="none" target-height="28.571442" target-width="28.571411" target-x="797.7143" target-y="126.285736"></path></g><path d="M 883.43 162.00 L 885.34 162.26 L 887.03 162.98 L 888.48 164.09 L 889.60 165.54 L 890.31 167.23 L 890.57 169.14 L 890.57 183.43 L 904.86 183.43 L 906.77 183.69 L 908.46 184.40 L 909.91 185.52 L 911.02 186.97 L 911.74 188.66 L 912.00 190.57 L 911.74 192.48 L 911.02 194.18 L 909.91 195.62 L 908.46 196.74 L 906.77 197.46 L 904.86 197.71 L 890.57 197.71 L 890.57 212.00 L 890.31 213.91 L 889.60 215.61 L 888.48 217.05 L 887.03 218.17 L 885.34 218.88 L 883.43 219.14 L 881.52 218.88 L 879.82 218.17 L 878.38 217.05 L 877.26 215.61 L 876.54 213.91 L 876.29 212.00 L 876.29 197.71 L 862.00 197.71 L 860.09 197.46 L 858.39 196.74 L 856.95 195.62 L 855.83 194.18 L 855.12 192.48 L 854.86 190.57 L 855.12 188.66 L 855.83 186.97 L 856.95 185.52 L 858.39 184.40 L 860.09 183.69 L 862.00 183.43 L 876.29 183.43 L 876.29 169.14 L 876.54 167.23 L 877.26 165.54 L 878.38 164.09 L 879.82 162.98 L 881.52 162.26 L 883.43 162.00 Z" fill="#edf0f5" fill-opacity="0.6" fill-rule="evenodd" group-id="1,2" id="形状结合" node-id="59" stroke="none" target-height="57.142853" target-width="57.142822" target-x="854.8572" target-y="162.00003"></path><path d="M 140.57 162.00 L 142.48 162.26 L 144.18 162.98 L 145.62 164.09 L 146.74 165.54 L 147.46 167.23 L 147.71 169.14 L 147.71 183.43 L 162.00 183.43 L 163.91 183.69 L 165.61 184.40 L 167.05 185.52 L 168.17 186.97 L 168.88 188.66 L 169.14 190.57 L 168.88 192.48 L 168.17 194.18 L 167.05 195.62 L 165.61 196.74 L 163.91 197.46 L 162.00 197.71 L 147.71 197.71 L 147.71 212.00 L 147.46 213.91 L 146.74 215.61 L 145.62 217.05 L 144.18 218.17 L 142.48 218.88 L 140.57 219.14 L 138.66 218.88 L 136.97 218.17 L 135.52 217.05 L 134.40 215.61 L 133.69 213.91 L 133.43 212.00 L 133.43 197.71 L 119.14 197.71 L 117.23 197.46 L 115.54 196.74 L 114.09 195.62 L 112.98 194.18 L 112.26 192.48 L 112.00 190.57 L 112.26 188.66 L 112.98 186.97 L 114.09 185.52 L 115.54 184.40 L 117.23 183.69 L 119.14 183.43 L 133.43 183.43 L 133.43 169.14 L 133.69 167.23 L 134.40 165.54 L 135.52 164.09 L 136.97 162.98 L 138.66 162.26 L 140.57 162.00 Z" fill="#edf0f5" fill-opacity="0.6" fill-rule="evenodd" group-id="1,2" id="形状结合备份-3" node-id="60" stroke="none" target-height="57.142853" target-width="57.14286" target-x="112.00002" target-y="162.00003"></path><path d="M 226.29 140.57 L 226.04 143.18 L 225.39 145.57 L 224.34 147.78 L 222.92 149.79 L 221.22 151.49 L 219.21 152.91 L 217.00 153.96 L 214.61 154.61 L 212.00 154.86 L 209.39 154.61 L 207.00 153.96 L 204.79 152.91 L 202.78 151.49 L 201.08 149.79 L 199.66 147.78 L 198.61 145.57 L 197.96 143.18 L 197.71 140.57 L 197.96 137.96 L 198.61 135.57 L 199.66 133.36 L 201.08 131.36 L 202.78 129.66 L 204.79 128.24 L 207.00 127.18 L 209.39 126.53 L 212.00 126.29 L 214.61 126.53 L 217.00 127.18 L 219.21 128.24 L 221.22 129.66 L 222.92 131.36 L 224.34 133.36 L 225.39 135.57 L 226.04 137.96 L 226.29 140.57 Z" fill="#edf0f5" fill-opacity="0.6" fill-rule="evenodd" group-id="1,2,6" id="椭圆形备份-48" node-id="61" stroke="none" target-height="28.571442" target-width="28.571426" target-x="197.71431" target-y="126.285736"></path></g><g node-id="228"><path d="M 271.39 254.86 L 752.61 254.86 L 755.73 255.12 L 758.61 255.85 L 761.32 257.04 L 763.81 258.64 L 765.97 260.58 L 767.84 262.87 L 769.32 265.43 L 770.36 268.22 L 770.97 271.29 L 802.58 555.77 L 802.64 559.16 L 802.14 562.32 L 801.10 565.32 L 799.56 568.10 L 797.62 570.53 L 795.25 572.64 L 792.55 574.31 L 789.57 575.49 L 786.26 576.17 L 784.22 576.29 L 239.78 576.29 L 236.41 575.97 L 233.32 575.13 L 230.46 573.76 L 227.87 571.93 L 225.67 569.73 L 223.83 567.14 L 222.47 564.27 L 221.62 561.18 L 221.31 557.81 L 221.42 555.77 L 253.03 271.29 L 253.64 268.22 L 254.68 265.43 L 256.16 262.87 L 258.03 260.58 L 260.19 258.64 L 262.68 257.04 L 265.39 255.85 L 268.28 255.12 L 271.39 254.86 Z" fill="url(#linearGradient-4)" fill-rule="evenodd" group-id="1,3" id="矩形" node-id="63" stroke="none" target-height="321.42853" target-width="581.3291" target-x="221.30913" target-y="254.8571"></path><g node-id="232"><path d="M 332.69 276.29 L 691.31 276.29 L 695.09 276.64 L 698.55 277.58 L 701.75 279.11 L 704.66 281.17 L 707.12 283.63 L 709.18 286.53 L 710.71 289.74 L 711.65 293.20 L 712.00 296.98 L 712.00 612.74 L 711.65 616.52 L 710.71 619.98 L 709.18 623.18 L 707.12 626.08 L 704.66 628.55 L 701.75 630.60 L 698.55 632.13 L 695.09 633.08 L 691.31 633.43 L 332.69 633.43 L 328.91 633.08 L 325.45 632.13 L 322.25 630.60 L 319.34 628.55 L 316.88 626.08 L 314.82 623.18 L 313.29 619.98 L 312.35 616.52 L 312.00 612.74 L 312.00 296.98 L 312.35 293.20 L 313.29 289.74 L 314.82 286.53 L 316.88 283.63 L 319.34 281.17 L 322.25 279.11 L 325.45 277.58 L 328.91 276.64 L 332.69 276.29 Z" fill="url(#linearGradient-5)" fill-opacity="0.398326" fill-rule="evenodd" group-id="1,3,7" id="矩形" node-id="64" stroke="none" target-height="357.14285" target-width="400.00003" target-x="312.00003" target-y="276.28568"></path></g><g node-id="233"><path d="M 312.00 312.00 L 712.00 312.00 L 714.97 312.21 L 717.74 312.78 L 720.35 313.68 L 722.82 314.93 L 725.82 317.06 L 728.37 319.61 L 730.50 322.61 L 731.75 325.08 L 732.65 327.69 L 733.21 330.46 L 733.43 333.43 L 733.43 690.57 L 733.21 693.54 L 732.65 696.31 L 731.75 698.92 L 730.50 701.39 L 728.37 704.39 L 725.82 706.94 L 722.82 709.07 L 720.35 710.32 L 717.74 711.22 L 714.97 711.79 L 712.00 712.00 L 312.00 712.00 L 309.03 711.79 L 306.26 711.22 L 303.65 710.32 L 301.18 709.07 L 298.18 706.94 L 295.63 704.39 L 293.50 701.39 L 292.25 698.92 L 291.35 696.31 L 290.79 693.54 L 290.57 690.57 L 290.57 333.43 L 290.79 330.46 L 291.35 327.69 L 292.25 325.08 L 293.50 322.61 L 295.63 319.61 L 298.18 317.06 L 301.18 314.93 L 303.65 313.68 L 306.26 312.78 L 309.03 312.21 L 312.00 312.00 Z" fill="url(#linearGradient-6)" fill-opacity="0.601846" fill-rule="evenodd" group-id="1,3,8" id="矩形" node-id="65" stroke="none" target-height="399.99997" target-width="442.85712" target-x="290.57147" target-y="311.99997"></path></g><g node-id="234"><path d="M 288.28 347.71 L 735.72 347.71 L 738.69 347.93 L 741.46 348.49 L 744.07 349.39 L 746.54 350.64 L 749.55 352.77 L 752.10 355.32 L 754.23 358.33 L 755.47 360.79 L 756.38 363.40 L 756.94 366.18 L 757.15 369.14 L 757.15 726.29 L 756.94 729.25 L 756.38 732.03 L 755.47 734.63 L 754.23 737.10 L 752.10 740.11 L 749.55 742.66 L 746.54 744.79 L 744.07 746.03 L 741.46 746.94 L 738.69 747.50 L 735.72 747.71 L 288.28 747.71 L 285.31 747.50 L 282.54 746.94 L 279.93 746.03 L 277.46 744.79 L 274.45 742.66 L 271.90 740.11 L 269.77 737.10 L 268.53 734.63 L 267.62 732.03 L 267.06 729.25 L 266.85 726.29 L 266.85 369.14 L 267.06 366.18 L 267.62 363.40 L 268.53 360.79 L 269.77 358.33 L 271.90 355.32 L 274.45 352.77 L 277.46 350.64 L 279.93 349.39 L 282.54 348.49 L 285.31 347.93 L 288.28 347.71 Z" fill="url(#linearGradient-7)" fill-opacity="0.9" fill-rule="evenodd" group-id="1,3,9" id="矩形" node-id="66" stroke="none" target-height="400" target-width="490.3061" target-x="266.847" target-y="347.71423"></path></g><path d="M 447.71 412.00 L 576.29 412.00 L 578.20 412.26 L 579.89 412.98 L 581.34 414.09 L 582.45 415.54 L 583.17 417.23 L 583.43 419.14 L 583.17 421.06 L 582.45 422.75 L 581.34 424.19 L 579.89 425.31 L 578.20 426.03 L 576.29 426.29 L 447.71 426.29 L 445.80 426.03 L 444.11 425.31 L 442.66 424.19 L 441.55 422.75 L 440.83 421.06 L 440.57 419.14 L 440.83 417.23 L 441.55 415.54 L 442.66 414.09 L 444.11 412.98 L 445.80 412.26 L 447.71 412.00 Z" fill="url(#linearGradient-8)" fill-rule="nonzero" group-id="1,3" id="矩形备份-136" node-id="67" stroke="none" target-height="14.285736" target-width="142.85712" target-x="440.57147" target-y="411.99994"></path><path d="M 304.86 447.71 L 719.14 447.71 L 721.06 447.97 L 722.75 448.69 L 724.19 449.81 L 725.31 451.25 L 726.03 452.94 L 726.29 454.86 L 726.03 456.77 L 725.31 458.46 L 724.19 459.91 L 722.75 461.02 L 721.06 461.74 L 719.14 462.00 L 304.86 462.00 L 302.94 461.74 L 301.25 461.02 L 299.81 459.91 L 298.69 458.46 L 297.97 456.77 L 297.71 454.86 L 297.97 452.94 L 298.69 451.25 L 299.81 449.81 L 301.25 448.69 L 302.94 447.97 L 304.86 447.71 Z" fill="url(#linearGradient-9)" fill-opacity="0.48898527" fill-rule="nonzero" group-id="1,3,10" id="矩形备份-139" node-id="68" stroke="none" target-height="14.285706" target-width="428.57144" target-x="297.71432" target-y="447.71423"></path><path d="M 240.57 397.71 L 367.08 397.71 L 372.26 398.03 L 377.20 398.92 L 381.94 400.37 L 386.48 402.36 L 390.70 404.81 L 394.63 407.74 L 398.20 411.10 L 401.35 414.83 L 404.09 418.96 L 406.34 423.37 L 408.07 428.08 L 409.29 433.13 L 413.17 455.14 L 413.99 458.53 L 415.14 461.67 L 416.63 464.60 L 418.45 467.33 L 420.58 469.85 L 422.94 472.07 L 425.53 474.00 L 428.38 475.67 L 431.39 476.99 L 434.53 477.94 L 437.83 478.53 L 441.30 478.75 L 590.14 478.75 L 593.62 478.53 L 596.92 477.94 L 600.06 476.99 L 603.07 475.67 L 605.92 474.00 L 608.51 472.07 L 610.87 469.85 L 613.00 467.33 L 614.82 464.60 L 616.31 461.67 L 617.46 458.53 L 618.28 455.14 L 622.16 433.13 L 623.37 428.08 L 625.10 423.37 L 627.35 418.96 L 630.10 414.83 L 633.25 411.10 L 636.82 407.74 L 640.74 404.81 L 644.96 402.36 L 649.51 400.37 L 654.25 398.92 L 659.19 398.03 L 664.37 397.71 L 783.43 397.71 L 786.40 397.93 L 789.17 398.49 L 791.78 399.39 L 794.24 400.64 L 797.25 402.77 L 799.80 405.32 L 801.93 408.33 L 803.18 410.79 L 804.08 413.40 L 804.64 416.18 L 804.86 419.14 L 804.86 747.71 L 804.64 750.68 L 804.08 753.45 L 803.18 756.06 L 801.93 758.53 L 799.80 761.54 L 797.25 764.09 L 794.24 766.22 L 791.78 767.46 L 789.17 768.37 L 786.40 768.93 L 783.43 769.14 L 240.57 769.14 L 237.60 768.93 L 234.83 768.37 L 232.22 767.46 L 229.76 766.22 L 226.75 764.09 L 224.20 761.54 L 222.07 758.53 L 220.82 756.06 L 219.92 753.45 L 219.36 750.68 L 219.14 747.71 L 219.14 419.14 L 219.36 416.18 L 219.92 413.40 L 220.82 410.79 L 222.07 408.33 L 224.20 405.32 L 226.75 402.77 L 229.76 400.64 L 232.22 399.39 L 234.83 398.49 L 237.60 397.93 L 240.57 397.71 Z" fill="#000000" fill-rule="evenodd" filter="url(#filter-12)" group-id="1,3,11,14" node-id="219" stroke="none" target-height="371.4286" target-width="585.7143" target-x="219.1429" target-y="397.71423"></path><path d="M 240.57 397.71 L 367.08 397.71 L 372.26 398.03 L 377.20 398.92 L 381.94 400.37 L 386.48 402.36 L 390.70 404.81 L 394.63 407.74 L 398.20 411.10 L 401.35 414.83 L 404.09 418.96 L 406.34 423.37 L 408.07 428.08 L 409.29 433.13 L 413.17 455.14 L 413.99 458.53 L 415.14 461.67 L 416.63 464.60 L 418.45 467.33 L 420.58 469.85 L 422.94 472.07 L 425.53 474.00 L 428.38 475.67 L 431.39 476.99 L 434.53 477.94 L 437.83 478.53 L 441.30 478.75 L 590.14 478.75 L 593.62 478.53 L 596.92 477.94 L 600.06 476.99 L 603.07 475.67 L 605.92 474.00 L 608.51 472.07 L 610.87 469.85 L 613.00 467.33 L 614.82 464.60 L 616.31 461.67 L 617.46 458.53 L 618.28 455.14 L 622.16 433.13 L 623.37 428.08 L 625.10 423.37 L 627.35 418.96 L 630.10 414.83 L 633.25 411.10 L 636.82 407.74 L 640.74 404.81 L 644.96 402.36 L 649.51 400.37 L 654.25 398.92 L 659.19 398.03 L 664.37 397.71 L 783.43 397.71 L 786.40 397.93 L 789.17 398.49 L 791.78 399.39 L 794.24 400.64 L 797.25 402.77 L 799.80 405.32 L 801.93 408.33 L 803.18 410.79 L 804.08 413.40 L 804.64 416.18 L 804.86 419.14 L 804.86 747.71 L 804.64 750.68 L 804.08 753.45 L 803.18 756.06 L 801.93 758.53 L 799.80 761.54 L 797.25 764.09 L 794.24 766.22 L 791.78 767.46 L 789.17 768.37 L 786.40 768.93 L 783.43 769.14 L 240.57 769.14 L 237.60 768.93 L 234.83 768.37 L 232.22 767.46 L 229.76 766.22 L 226.75 764.09 L 224.20 761.54 L 222.07 758.53 L 220.82 756.06 L 219.92 753.45 L 219.36 750.68 L 219.14 747.71 L 219.14 419.14 L 219.36 416.18 L 219.92 413.40 L 220.82 410.79 L 222.07 408.33 L 224.20 405.32 L 226.75 402.77 L 229.76 400.64 L 232.22 399.39 L 234.83 398.49 L 237.60 397.93 L 240.57 397.71 Z" fill="url(#linearGradient-10)" fill-rule="evenodd" group-id="1,3,11,15" node-id="224" stroke="none" target-height="371.4286" target-width="585.7143" target-x="219.1429" target-y="397.71423"></path><path d="M 319.14 769.14 L 704.86 769.14 L 704.61 771.75 L 703.96 774.14 L 702.91 776.35 L 701.49 778.36 L 699.79 780.06 L 697.78 781.48 L 695.57 782.53 L 693.18 783.19 L 690.57 783.43 L 333.43 783.43 L 330.82 783.19 L 328.43 782.53 L 326.22 781.48 L 324.21 780.06 L 322.51 778.36 L 321.09 776.35 L 320.04 774.14 L 319.39 771.75 L 319.14 769.14 L 319.14 769.14 L 319.14 769.14 Z" fill="url(#linearGradient-13)" fill-rule="evenodd" group-id="1,3" id="矩形" node-id="72" stroke="none" target-height="14.285706" target-width="385.7143" target-x="319.14288" target-y="769.1428"></path><path d="M 704.86 513.79 L 708.44 514.12 L 711.73 515.01 L 714.77 516.47 L 717.53 518.42 L 719.87 520.76 L 721.82 523.51 L 723.27 526.56 L 724.17 529.84 L 724.50 533.43 L 724.50 690.57 L 724.17 694.16 L 723.27 697.44 L 721.82 700.49 L 719.87 703.24 L 717.53 705.58 L 714.77 707.53 L 711.73 708.98 L 708.44 709.88 L 704.86 710.21 L 319.14 710.21 L 315.56 709.88 L 312.27 708.98 L 309.23 707.53 L 306.47 705.58 L 304.13 703.24 L 302.18 700.49 L 300.73 697.44 L 299.83 694.16 L 299.50 690.57 L 299.50 533.43 L 299.83 529.84 L 300.73 526.56 L 302.18 523.51 L 304.13 520.76 L 306.47 518.42 L 309.23 516.47 L 312.27 515.01 L 315.56 514.12 L 319.14 513.79 L 704.86 513.79 Z M 704.86 524.50 L 319.14 524.50 L 316.75 524.82 L 314.64 525.72 L 312.83 527.12 L 311.43 528.92 L 310.54 531.04 L 310.21 533.43 L 310.21 690.57 L 310.54 692.96 L 311.43 695.08 L 312.83 696.88 L 314.64 698.28 L 316.75 699.18 L 319.14 699.50 L 704.86 699.50 L 707.25 699.18 L 709.36 698.28 L 711.17 696.88 L 712.57 695.08 L 713.46 692.96 L 713.79 690.57 L 713.79 533.43 L 713.46 531.04 L 712.57 528.92 L 711.17 527.12 L 709.36 525.72 L 707.25 524.82 L 704.86 524.50 Z" fill="url(#linearGradient-14)" fill-rule="nonzero" group-id="1,3" id="矩形" node-id="73" stroke="none" target-height="196.42859" target-width="425.00003" target-x="299.50003" target-y="513.78564"></path><path d="M 701.29 424.50 L 702.74 424.71 L 703.99 425.23 L 705.07 426.07 L 705.92 427.16 L 706.44 428.40 L 706.64 429.86 L 706.64 458.43 L 706.44 459.88 L 705.92 461.13 L 705.07 462.22 L 703.99 463.06 L 702.74 463.58 L 701.29 463.79 L 699.83 463.58 L 698.58 463.06 L 697.50 462.22 L 696.66 461.13 L 696.13 459.88 L 695.93 458.43 L 695.93 429.86 L 696.13 428.40 L 696.66 427.16 L 697.50 426.07 L 698.58 425.23 L 699.83 424.71 L 701.29 424.50 Z" fill="url(#linearGradient-15)" fill-rule="nonzero" group-id="1,3" id="直线-49" node-id="74" stroke="none" target-height="39.285736" target-width="10.714294" target-x="695.9286" target-y="424.49994"></path><path d="M 272.71 424.50 L 274.17 424.71 L 275.42 425.23 L 276.50 426.07 L 277.34 427.16 L 277.87 428.40 L 278.07 429.86 L 278.07 458.43 L 277.87 459.88 L 277.34 461.13 L 276.50 462.22 L 275.42 463.06 L 274.17 463.58 L 272.71 463.79 L 271.26 463.58 L 270.01 463.06 L 268.93 462.22 L 268.08 461.13 L 267.56 459.88 L 267.36 458.43 L 267.36 429.86 L 267.56 428.40 L 268.08 427.16 L 268.93 426.07 L 270.01 425.23 L 271.26 424.71 L 272.71 424.50 Z" fill="url(#linearGradient-15)" fill-rule="nonzero" group-id="1,3" id="直线-49备份-2" node-id="75" stroke="none" target-height="39.285736" target-width="10.714294" target-x="267.35718" target-y="424.49994"></path><path d="M 751.29 424.50 L 752.74 424.71 L 753.99 425.23 L 755.07 426.07 L 755.92 427.16 L 756.44 428.40 L 756.64 429.86 L 756.64 458.43 L 756.44 459.88 L 755.92 461.13 L 755.07 462.22 L 753.99 463.06 L 752.74 463.58 L 751.29 463.79 L 749.83 463.58 L 748.58 463.06 L 747.50 462.22 L 746.66 461.13 L 746.13 459.88 L 745.93 458.43 L 745.93 429.86 L 746.13 428.40 L 746.66 427.16 L 747.50 426.07 L 748.58 425.23 L 749.83 424.71 L 751.29 424.50 Z" fill="url(#linearGradient-15)" fill-rule="nonzero" group-id="1,3" id="直线-49备份" node-id="76" stroke="none" target-height="39.285736" target-width="10.714294" target-x="745.9286" target-y="424.49994"></path><path d="M 322.71 424.50 L 324.17 424.71 L 325.42 425.23 L 326.50 426.07 L 327.34 427.16 L 327.87 428.40 L 328.07 429.86 L 328.07 458.43 L 327.87 459.88 L 327.34 461.13 L 326.50 462.22 L 325.42 463.06 L 324.17 463.58 L 322.71 463.79 L 321.26 463.58 L 320.01 463.06 L 318.93 462.22 L 318.08 461.13 L 317.56 459.88 L 317.36 458.43 L 317.36 429.86 L 317.56 428.40 L 318.08 427.16 L 318.93 426.07 L 320.01 425.23 L 321.26 424.71 L 322.71 424.50 Z" fill="url(#linearGradient-15)" fill-rule="nonzero" group-id="1,3" id="直线-49备份-3" node-id="77" stroke="none" target-height="39.285736" target-width="10.714294" target-x="317.35718" target-y="424.49994"></path><path d="M 518.71 561.71 L 519.50 560.03 L 520.53 558.57 L 521.80 557.30 L 523.27 556.27 L 524.89 555.51 L 526.68 555.03 L 528.54 554.87 L 530.32 555.03 L 532.05 555.49 L 533.69 556.25 L 535.15 557.27 L 536.47 558.57 L 537.53 560.09 L 538.29 561.71 L 538.75 563.45 L 538.91 565.23 L 538.76 567.01 L 538.29 568.80 L 502.68 662.30 L 501.86 664.02 L 500.82 665.49 L 499.54 666.74 L 498.07 667.76 L 496.48 668.50 L 494.76 668.97 L 492.98 669.15 L 491.18 669.00 L 489.33 668.52 L 487.61 667.70 L 486.13 666.66 L 484.88 665.39 L 483.86 663.92 L 483.12 662.34 L 482.64 660.62 L 482.47 658.84 L 482.62 657.05 L 483.10 655.20 L 518.71 561.71 L 518.71 561.71 Z M 566.98 572.20 L 565.87 570.72 L 565.06 569.12 L 564.54 567.41 L 564.32 565.62 L 564.41 563.84 L 564.82 562.03 L 565.56 560.33 L 566.53 558.83 L 567.76 557.52 L 569.20 556.44 L 570.79 555.63 L 572.57 555.08 L 574.42 554.86 L 576.20 554.96 L 577.96 555.37 L 579.61 556.07 L 581.11 557.04 L 582.48 558.30 L 623.62 603.96 L 625.11 606.10 L 625.99 608.44 L 626.29 610.90 L 625.99 613.37 L 625.11 615.71 L 623.62 617.85 L 582.48 663.50 L 581.08 664.80 L 579.56 665.77 L 577.91 666.46 L 576.16 666.85 L 574.41 666.94 L 572.63 666.74 L 570.91 666.23 L 569.30 665.42 L 567.77 664.29 L 566.47 662.89 L 565.50 661.37 L 564.81 659.73 L 564.41 657.98 L 564.32 656.24 L 564.53 654.46 L 565.03 652.75 L 565.84 651.14 L 566.98 649.61 L 601.88 610.91 L 566.99 572.20 L 566.98 572.20 Z M 457.02 572.20 L 458.13 570.72 L 458.94 569.13 L 459.46 567.41 L 459.68 565.63 L 459.59 563.84 L 459.18 562.04 L 458.45 560.33 L 457.47 558.84 L 456.24 557.53 L 454.81 556.45 L 453.21 555.63 L 451.44 555.09 L 449.59 554.87 L 447.81 554.96 L 446.05 555.37 L 444.40 556.07 L 442.90 557.04 L 441.53 558.30 L 400.38 603.96 L 398.89 606.10 L 398.01 608.44 L 397.71 610.90 L 398.01 613.37 L 398.89 615.71 L 400.38 617.85 L 441.53 663.50 L 442.94 664.76 L 444.45 665.70 L 446.10 666.35 L 447.83 666.73 L 449.56 666.80 L 451.32 666.58 L 453.01 666.08 L 454.60 665.27 L 456.11 664.15 L 457.39 662.77 L 458.37 661.27 L 459.05 659.65 L 459.45 657.93 L 459.56 656.20 L 459.37 654.44 L 458.90 652.74 L 458.12 651.14 L 457.02 649.61 L 422.13 610.91 L 457.02 572.20 L 457.02 572.20 Z" fill="url(#linearGradient-16)" fill-rule="evenodd" group-id="1,3" id="形状" node-id="78" stroke="none" target-height="114.28125" target-width="228.57141" target-x="397.7143" target-y="554.86414"></path></g></g></svg>